<?xml version="1.0" standalone="no"?>
<!DOCTYPE svg PUBLIC "-//W3C//DTD SVG 1.1//EN" "http://www.w3.org/Graphics/SVG/1.1/DTD/svg11.dtd" >
<svg xmlns="http://www.w3.org/2000/svg">
<metadata>Generated by IcoMoon</metadata>
<defs>
<font id="icomoon" horiz-adv-x="1024">
<font-face units-per-em="1024" ascent="960" descent="-64" />
<missing-glyph horiz-adv-x="1024" />
<glyph unicode="&#x20;" horiz-adv-x="512" d="" />
<glyph unicode="&#xe900;" glyph-name="icon_1" d="M536.206 920.156l130.254-308.288 333.466-28.647c23.128-1.997 32.537-30.855 14.981-46.046l-252.938-219.139 75.797-326.002c5.256-22.655-19.291-40.474-39.16-28.437l-286.579 172.831-286.579-172.831c-19.922-11.985-44.417 5.835-39.16 28.437l75.797 326.002-252.991 219.192c-17.556 15.191-8.2 44.049 14.981 46.046l333.466 28.647 130.254 308.236c9.041 21.446 39.37 21.446 48.411 0z" />
<glyph unicode="&#xe901;" glyph-name="icon_2" d="M510.354 585.096v-421.968l335.942 63.754v205.596c0 8.607 7.496 15.291 16.046 14.311l41.33-6.395c7.272-0.835 12.762-6.991 12.762-14.311v-238.846c0-6.79-4.74-12.656-11.378-14.083l-367.748-79.072c-17.771-3.82-36.148-3.862-53.936-0.12l-363.801 76.524c-6.529 1.372-11.261 7.051-11.435 13.722l-6.285 242.571c-0.197 7.608 5.558 14.055 13.138 14.721l309.027 27.154c5.359 0.47 10.009 3.89 12.059 8.863l46.555 113.063c6.007 14.59 27.723 10.294 27.723-5.483zM98.356 723.252l-96.975-207.286c-4.739-10.13 3.37-21.559 14.495-20.435l364.191 36.799c5.147 0.52 9.619 3.76 11.717 8.488l117.183 263.998-400.165-73.5c-4.58-0.842-8.471-3.845-10.446-8.063zM508.968 804.815l123.994-272.25c2.167-4.759 6.741-7.968 11.955-8.388l363.503-29.233c10.954-0.88 18.82 10.337 14.259 20.336l-94.8 207.832c-1.961 4.298-5.903 7.36-10.555 8.199l-408.357 73.504z" />
<glyph unicode="&#xe902;" glyph-name="icon_3" d="M874.439 853.584c-41.459 22.84-89.012 35.976-139.746 35.976-89.512 0-169.674-40.79-222.606-104.753-53.182 63.962-133.268 104.753-222.902 104.753-50.612 0-98.077-13.136-139.629-35.976-89.152-49.373-149.555-144.299-149.555-253.389 0-31.231 5.082-61.183 14.287-89.204 49.64-223.135 497.8-504.551 497.8-504.551s447.863 281.41 497.574 504.551c9.205 28.021 14.339 58.014 14.339 89.204 0 109.050-60.404 203.946-149.561 253.389z" />
<glyph unicode="&#xe903;" glyph-name="icon_4" d="M767.965 959.787l-132.79 0.213c-149.185 0-245.595-98.913-245.595-252.008v-116.192h-133.514c-11.537 0-20.88-9.353-20.88-20.891v-168.35c0-11.537 9.353-20.88 20.88-20.88h133.514v-424.8c0-11.537 9.343-20.88 20.88-20.88h174.198c11.537 0 20.88 9.353 20.88 20.88v424.8h156.109c11.537 0 20.88 9.343 20.88 20.88l0.064 168.35c0 5.54-2.205 10.845-6.115 14.765s-9.236 6.125-14.776 6.125h-156.163v98.498c0 47.342 11.282 71.375 72.952 71.375l89.453 0.032c11.527 0 20.869 9.353 20.869 20.88v156.322c0 11.516-9.332 20.859-20.848 20.88z" />
<glyph unicode="&#xe904;" glyph-name="icon_5" d="M1024 765.064c-40.286-17.328-80.581-28.149-120.848-32.496 45.481 27.289 76.245 65.841 92.274 115.653-41.603-24.685-85.995-41.574-133.206-50.675-41.588 44.182-92.692 66.282-153.349 66.282-58.037 0-107.521-20.464-148.472-61.4-40.928-40.934-61.394-90.419-61.394-148.46 0-15.591 1.73-31.624 5.198-48.083-85.77 4.331-166.227 25.88-241.387 64.648-75.155 38.772-138.939 90.428-191.35 154.967-19.060-32.48-28.593-67.789-28.593-105.906 0-35.953 8.445-69.311 25.348-100.066 16.891-30.75 39.637-55.654 68.228-74.716-33.793 1.302-65.413 10.184-94.864 26.645v-2.599c0-50.684 15.919-95.182 47.753-133.529 31.838-38.342 72.017-62.477 120.527-72.445-18.195-4.759-36.608-7.141-55.231-7.141-12.13 0-25.343 1.081-39.635 3.232 13.427-42.009 38.119-76.541 74.067-103.628 35.955-27.073 76.673-41.028 122.157-41.915-76.234-59.766-163.082-89.65-260.545-89.65-18.63 0-35.518 0.849-50.682 2.592 97.465-62.802 204.888-94.204 322.277-94.204 74.504 0 144.462 11.791 209.849 35.404 65.42 23.598 121.292 55.226 167.645 94.868 46.339 39.633 86.309 85.223 119.874 136.767 33.568 51.549 58.574 105.364 75.048 161.457 16.454 56.105 24.688 112.296 24.688 168.617 0 12.13-0.218 21.222-0.653 27.289 41.162 29.874 76.248 66.050 105.273 108.491z" />
<glyph unicode="&#xe905;" glyph-name="icon_6" d="M131.434 960h761.132c72.283 0 131.424-53.516 131.424-131.424v-761.153c0-77.908-59.141-131.424-131.424-131.424h-761.132c-72.304 0-131.434 53.516-131.434 131.424v761.153c0 77.908 59.13 131.424 131.434 131.424v0zM745.939 846.229c-25.359 0-46.082-20.733-46.082-46.103v-110.343c0-25.359 20.723-46.103 46.082-46.103h115.737c25.359 0 46.103 20.744 46.103 46.103v110.343c0 25.37-20.744 46.103-46.103 46.103h-115.737zM908.263 526.954h-90.125c8.527-27.841 13.142-57.332 13.142-87.844 0-170.325-142.526-308.393-318.308-308.393-175.771 0-318.276 138.068-318.276 308.393 0 30.532 4.605 60.013 13.142 87.844h-94.047v-432.552c0-22.384 18.315-40.71 40.71-40.71h713.073c22.395 0 40.71 18.315 40.71 40.71v432.552h-0.021zM512.962 649.493c-113.571 0-205.652-89.21-205.652-199.27s92.081-199.27 205.652-199.27c113.582 0 205.673 89.21 205.673 199.27s-92.081 199.27-205.673 199.27z" />
<glyph unicode="&#xe906;" glyph-name="icon_7" d="M736 960h-448c-52.8 0-96-43.2-96-96v-832c0-52.8 43.2-96 96-96h448c52.8 0 96 43.2 96 96v832c0 52.8-43.2 96-96 96zM384 912h256v-32h-256v32zM512 0c-35.346 0-64 28.654-64 64s28.654 64 64 64 64-28.654 64-64-28.654-64-64-64zM768 192h-512v640h512v-640z" />
<glyph unicode="&#xe907;" glyph-name="icon_8" d="M323.931 273.622v278.009h-64.268v71.243h152.951v-349.252h-88.683zM745.907 532.699c0-30.39-16.441-57.293-43.842-72.242 38.358-15.939 62.275-49.322 62.275-88.182 0-62.773-55.802-102.633-142.987-102.633-87.188 0-142.987 39.361-142.987 101.135 0 39.859 25.906 73.74 66.261 89.679-29.394 16.444-48.326 44.34-48.326 74.73 0 55.805 48.827 91.174 124.553 91.174 76.723 0 125.052-36.369 125.052-93.662zM562.065 379.745c0-29.397 20.928-45.838 59.289-45.838s59.784 15.939 59.784 45.838c0 28.893-21.423 45.339-59.784 45.339-38.365 0-59.289-16.444-59.289-45.339zM571.035 527.717c0-24.916 17.935-38.86 50.318-38.86s50.318 13.947 50.318 38.86c0 25.9-17.935 40.351-50.318 40.351-32.386 0-50.318-14.451-50.318-40.351zM911.908 583.447c14.744-43.515 22.223-89.029 22.223-135.448 0-232.76-189.366-422.126-422.129-422.126s-422.132 189.366-422.132 422.126c0 232.766 189.366 422.126 422.129 422.126 46.426 0 91.94-7.473 135.448-22.223v93.939c-43.948 12.047-89.337 18.159-135.445 18.159-282.315 0-511.998-229.683-511.998-512.002s229.683-512.002 511.998-512.002 511.995 229.683 511.995 512.002c0 46.105-6.109 91.498-18.156 135.448h-93.933zM886.359 822.649v98.174h-70.595v-98.174h-97.585v-70.589h97.585v-98.171h70.595v98.171h98.167v70.589z" />
<glyph unicode="&#xe908;" glyph-name="icon_9" d="M954.174 122.18h-162.907c-102.657 0-186.178 83.521-186.178 186.178s83.521 186.178 186.178 186.178h162.907c12.864 0 23.273 10.409 23.273 23.273v69.817c0 48.802-37.854 88.491-85.681 92.34l-133.656 233.451c-12.386 21.591-32.386 37.023-56.318 43.431-23.819 6.364-48.726 3.022-70.044-9.386l-458.181-266.745h-80.471c-51.34 0-93.090-41.748-93.090-93.090v-558.536c0-51.34 41.748-93.090 93.090-93.090h791.261c51.34 0 93.090 41.748 93.090 93.090v69.817c0 12.864-10.409 23.273-23.273 23.273zM786.973 769.288l50.709-88.572h-202.843l152.134 88.572zM266.075 680.717l389.103 226.519c10.523 6.159 22.817 7.796 34.568 4.658 11.886-3.181 21.796-10.863 27.955-21.613l0.048-0.085-359.798-209.479h-91.877zM954.174 447.992h-162.907c-76.999 0-139.634-62.635-139.634-139.634s62.635-139.634 139.634-139.634h162.907c38.5 0 69.817 31.317 69.817 69.817v139.634c0 38.5-31.317 69.817-69.817 69.817zM791.267 261.814c-25.658 0-46.544 20.886-46.544 46.544s20.886 46.544 46.544 46.544c25.658 0 46.544-20.886 46.544-46.544 0.002-25.658-20.884-46.544-46.544-46.544z" />
<glyph unicode="&#xe909;" glyph-name="icon_10" d="M512 448c140.8 0 256 115.2 256 256s-115.2 256-256 256c-140.8 0-256-115.2-256-256s115.2-256 256-256zM512 320c-172.8 0-512-83.2-512-256v-128h1024v128c0 172.8-339.2 256-512 256z" />
<glyph unicode="&#xe90a;" glyph-name="icon_11" d="M511.999 391.68c31.231 0 56.321 25.344 56.321 56.321s-25.087 56.321-56.321 56.321c-30.977 0-56.321-25.344-56.321-56.321s25.346-56.321 56.321-56.321zM511.999 960c-282.878 0-511.999-229.121-511.999-511.999 0-282.624 229.121-511.999 511.999-511.999s511.999 229.375 511.999 511.999c0.002 282.878-229.118 511.999-511.999 511.999zM624.127 335.873l-419.328-195.072 195.072 419.328 419.328 195.072-195.072-419.328z" />
<glyph unicode="&#xe90b;" glyph-name="icon_12" d="M1001.239 70.148l-211.077 211.068c50.868 73.43 76.314 155.291 76.314 245.538 0 58.666-11.389 114.773-34.168 168.309-22.763 53.545-53.536 99.696-92.305 138.466s-84.914 69.542-138.448 92.308c-53.551 22.772-109.654 34.157-168.32 34.157-58.662 0-114.769-11.385-168.305-34.157-53.545-22.765-99.696-53.538-138.466-92.308-38.774-38.769-69.542-84.93-92.31-138.466-22.77-53.542-34.155-109.643-34.155-168.309 0-58.662 11.385-114.75 34.155-168.301 22.765-53.536 53.536-99.681 92.31-138.45 38.769-38.782 84.93-69.542 138.466-92.32 53.542-22.768 109.643-34.15 168.305-34.15 90.266 0 172.114 25.449 245.548 76.312l211.077-210.456c14.769-15.586 33.206-23.384 55.379-23.384 21.332 0 39.804 7.796 55.381 23.384 15.584 15.584 23.382 34.047 23.382 55.379 0.006 21.731-7.583 40.201-22.763 55.381zM628.006 332.005c-53.948-53.956-118.866-80.933-194.771-80.933-75.892 0-140.811 26.984-194.763 80.933s-80.927 118.858-80.927 194.763c0 75.892 26.981 140.821 80.927 194.763 53.941 53.954 118.871 80.927 194.763 80.927 75.896 0 140.815-26.984 194.771-80.927 53.956-53.941 80.931-118.871 80.931-194.763 0-75.905-26.984-140.815-80.931-194.763z" />
<glyph unicode="&#xe90c;" glyph-name="icon_13" horiz-adv-x="1017" d="M697.191 640.454v0 0c-50.837 50.837-112.567 76.255-188.823 76.255s-137.986-32.681-188.823-76.255v0 0c-43.574-50.837-76.255-116.199-76.255-188.823s32.681-141.617 76.255-188.823v0 0c50.837-50.837 116.199-76.255 188.823-76.255s141.617 32.681 188.823 76.255v0 0c50.837 50.837 76.255 112.567 76.255 188.823s-29.050 137.986-76.255 188.823zM541.050 306.383v0-39.943c0-18.156-10.894-32.681-32.681-32.681s-32.681 10.894-32.681 32.681v39.943c-18.156 7.262-39.943 18.156-50.837 36.312-10.894 14.525-10.894 32.681 0 43.574s32.681 7.262 43.574-7.262c14.525-18.156 32.681-25.418 50.837-18.156 10.894 7.262 18.156 10.894 18.156 25.418 0 18.156-10.894 32.681-32.681 32.681-50.837 0-87.149 39.943-87.149 90.78 0 36.312 18.156 68.993 58.099 83.518v36.312c0 18.156 10.894 32.681 32.681 32.681s32.681-10.894 32.681-32.681v-39.943c10.894 0 25.418-14.525 43.574-25.418 10.894-10.894 10.894-32.681 0-43.574-14.525-7.262-32.681-7.262-43.574 7.262s-32.681 18.156-43.574 14.525c-14.525-7.262-18.156-18.156-18.156-32.681 0-18.156 10.894-32.681 32.681-32.681 50.837 0 87.149-36.312 87.149-87.149-3.631-32.681-25.418-72.624-58.099-83.518zM541.050 960v-185.191c68.993-7.262 127.092-32.681 177.929-76.255l127.092 127.092c-83.518 76.255-192.454 127.092-305.021 134.355zM170.667 825.645l127.092-127.092c50.837 43.574 116.199 68.993 177.929 76.255v185.191c-112.567-7.262-221.504-58.099-305.021-134.355zM831.546 418.95c-7.262-68.993-32.681-127.092-76.255-177.929l127.092-127.092c76.255 83.518 119.83 188.823 134.355 305.021h-185.191zM134.355 789.333c-76.255-83.518-127.092-192.454-134.355-305.021h185.191c3.631 61.73 32.681 127.092 68.993 177.929l-119.83 127.092zM718.979 197.447c-50.837-43.574-112.567-68.993-177.929-76.255v-177.929c112.567 7.262 221.504 58.099 305.021 134.355l-127.092 119.83zM882.383 789.333l-127.092-127.092c43.574-50.837 68.993-116.199 76.255-177.929h185.191c-7.262 112.567-58.099 221.504-134.355 305.021zM185.191 418.95h-185.191c7.262-112.567 58.099-221.504 134.355-305.021l127.092 127.092c-43.574 50.837-72.624 116.199-76.255 177.929zM297.759 197.447l-127.092-127.092c83.518-76.255 188.823-119.83 305.021-134.355v185.191c-61.73 10.894-127.092 36.312-177.929 76.255z" />
<glyph unicode="&#xe90d;" glyph-name="icon_14" d="M782.858 397.307l-440.304-440.29c-28.009-28.022-73.42-28.022-101.415 0-27.997 27.997-27.997 73.406 0 101.401l389.601 389.589-389.589 389.576c-27.997 28.009-27.997 73.413 0 101.41 27.997 28.009 73.406 28.009 101.415 0l440.304-440.297c13.999-14.005 20.99-32.342 20.99-50.687 0-18.354-7.005-36.704-21.001-50.703z" />
<glyph unicode="&#xe90e;" glyph-name="icon_15" d="M537.6 851.2v-204.8l166.4-121.6 166.4 96v192c-44.8 44.8-96 83.2-160 108.8l-172.8-70.4zM512 601.6l-160-121.6 57.6-192h204.8l57.6 192zM646.4-44.8l96 153.6-121.6 128h-217.6l-121.6-128 96-153.6c89.6-25.6 179.2-25.6 268.8 0zM384 947.2l128-51.2 128 44.8c-44.8 12.8-83.2 19.2-128 19.2s-83.2-6.4-128-12.8zM896 569.6l-166.4-96-64-204.8 121.6-128 185.6 70.4c6.4 12.8 12.8 25.6 19.2 38.4 25.6 57.6 38.4 115.2 38.4 172.8l-134.4 147.2zM358.4 268.8l-64 204.8-166.4 96-128-153.6c6.4-57.6 12.8-108.8 38.4-160 6.4-12.8 12.8-32 19.2-44.8l185.6-70.4 115.2 128zM921.6 134.4l-121.6-44.8-64-102.4c70.4 32 134.4 83.2 185.6 147.2zM928 748.8v-134.4l96-108.8c-6.4 44.8-19.2 89.6-32 134.4-19.2 38.4-38.4 70.4-64 108.8zM294.4-19.2l-64 102.4-121.6 44.8c44.8-57.6 108.8-108.8 185.6-147.2zM313.6 524.8l166.4 121.6v204.8l-172.8 64c-57.6-25.6-115.2-57.6-160-102.4v-192l166.4-96zM0 505.6l96 108.8v134.4c-19.2-32-38.4-64-57.6-96-19.2-51.2-32-102.4-38.4-147.2z" />
<glyph unicode="&#xe90f;" glyph-name="icon_16" d="M198.4 179.2v544c0 6.4 0 12.8 0 19.2l-153.6-51.2c-32-12.8-51.2-51.2-38.4-89.6l166.4-518.4c6.4-32 38.4-44.8 64-44.8 6.4 0 12.8 0 19.2 6.4l44.8 12.8c-57.6 12.8-102.4 64-102.4 121.6zM313.6 262.4l166.4 518.4c0 6.4 6.4 12.8 6.4 12.8h-160c-38.4 0-70.4-32-70.4-70.4v-544c0-38.4 32-70.4 70.4-70.4h57.6c-57.6 32-89.6 89.6-70.4 153.6zM979.2 691.2l-358.4 115.2c-6.4 0-12.8 6.4-19.2 6.4-32 0-57.6-19.2-64-44.8l-172.8-524.8c-12.8-38.4 6.4-76.8 44.8-89.6l352-115.2c6.4 0 12.8-6.4 19.2-6.4 32 0 57.6 19.2 64 44.8l166.4 518.4c19.2 44.8 0 83.2-32 96zM646.4 288c-166.4 204.8-70.4 300.8-12.8 300.8 51.2 0 70.4-38.4 83.2-76.8 32 32 70.4 44.8 115.2 19.2 44.8-38.4 70.4-179.2-185.6-243.2z" />
<glyph unicode="&#xe910;" glyph-name="icon_17" d="M896 800h-768l-128-128v-160c0-70.688 57.376-128 128-128v-320c-70.626 0-128-57.312-128-128h1024c0 70.688-57.25 128-128 128v320c70.75 0 128 57.312 128 128v160l-128 128zM768 512c0-35.312-28.75-64-64-64s-64 28.688-64 64v128h128v-128zM384 512c0-35.312-28.688-64-64-64-35.25 0-64 28.688-64 64v128h128v-128zM448 640h128v-128c0-35.312-28.688-64-64-64-35.25 0-64 28.688-64 64v128zM64 512v128h128v-128c0-35.312-28.688-64-64-64-35.25 0-64 28.688-64 64zM192 64v337.75c12.126 7.062 22.876 15.876 32 26.376 23.5-26.812 57.626-44.126 96-44.126 38.5 0 72.562 17.312 96 44.124 23.5-26.81 57.626-44.124 96-44.124 23.5 0 45.124 6.75 64 17.75v-337.75h-384zM832 64h-192v337.75c18.876-11 40.624-17.75 64-17.75 38.5 0 72.624 17.312 96 44.124 9.25-10.5 19.876-19.31 32-26.376v-337.748zM960 512c0-35.312-28.75-64-64-64s-64 28.688-64 64v128h128v-128zM896 832h-768v128h768v-128zM736 256c0-17.688-14.25-32-32-32-17.624 0-32 14.312-32 32s14.376 32 32 32c17.75 0 32-14.312 32-32z" />
<glyph unicode="&#xe911;" glyph-name="icon_18" d="M512 960c-282.6 0-512-229-512-511.8s229.4-512.2 512-512.2c282.8 0 512 229.4 512 512.2s-229.2 511.8-512 511.8zM548.6 163.4c-11.8-10.6-25.6-16-41.2-16-16.2 0-30.2 5.2-42.2 15.6s-18 25-18 43.8c0 16.6 5.8 30.8 17.4 42 11.6 11.4 26 17 42.8 17 16.6 0 30.8-5.6 42-17 11.4-11.4 17-25.4 17-42 0-18.2-6-32.8-17.8-43.4zM696.8 531c-9.2-17-20-31.6-32.6-43.8-12.6-12.4-35.2-33-67.6-62.2-9-8.2-16.2-15.4-21.6-21.6s-9.4-12-12.2-17c-2.6-5.2-4.8-10.4-6.2-15.4-1.4-5.2-3.6-14.2-6.6-27.2-5-27.6-20.8-41.2-47.2-41.2-13.8 0-25.4 4.4-34.8 13.4s-14 22.4-14 40c0 22.2 3.4 41.4 10.4 57.8 6.8 16.2 16 30.6 27.4 42.8 11.4 12.4 26.8 27 46 43.8 17 14.8 29.2 26 36.8 33.6s13.8 16 19 25.2c5.2 9.2 7.8 19.4 7.8 30.2 0 21.2-7.8 39-23.6 53.6s-36 21.8-61 21.8c-29.2 0-50.6-7.4-64.4-22s-25.4-36.4-35-64.8c-9-30-26-44.8-51.2-44.8-14.8 0-27.4 5.2-37.6 15.6s-15.2 21.8-15.2 34c0 25.2 8 50.6 24.2 76.4s39.8 47.2 70.6 64.2c31 17 67 25.4 108.4 25.4 38.4 0 72.2-7 101.6-21.2s52-33.4 68-57.8c16-24.4 24-50.8 24-79.4 0.2-22.8-4.2-42.4-13.4-59.4z" />
<glyph unicode="&#xe912;" glyph-name="icon_20" d="M461.138 387.798c20.686 12.925 39.422 28.688 55.657 46.758l58.529-33.799 53.293 92.309-58.412 33.726c7.427 22.674 11.795 46.724 12.614 71.654l66.452 11.717-18.516 104.967-66.44-11.717c-9.182 22.757-21.5 43.918-36.44 62.934l43.431 51.753-81.65 68.508-43.394-51.709c-21.195 11.358-44.147 19.848-68.337 24.942v67.437h-106.585v-67.437c-24.192-5.095-47.144-13.585-68.342-24.942l-43.392 51.709-81.65-68.51 43.426-51.753c-14.937-19.017-27.255-40.18-36.437-62.934l-66.44 11.717-18.506-104.967 66.442-11.717c0.819-24.933 5.19-48.978 12.617-71.659l-58.417-33.724 53.295-92.306 58.532 33.79c16.23-18.063 34.965-33.829 55.654-46.753l-23.104-63.47 100.161-36.449 23.072 63.384c11.891-1.682 24.033-2.574 36.381-2.574s24.493 0.887 36.383 2.574l23.070-63.389 100.156 36.459-23.104 63.472zM324.628 470.917c-75.055 0-136.116 61.059-136.116 136.116 0 75.052 61.062 136.116 136.116 136.116s136.116-61.064 136.116-136.116c0-75.057-61.059-136.116-136.116-136.116zM919.277 307.758l-45.947-14.863c-8.762 15.228-19.591 29.015-32.061 41.018l25.678 40.982-64.653 40.507-25.664-40.947c-16.144 5.96-33.252 9.712-50.912 10.93l-6.662 47.814-75.568-10.534 6.662-47.814c-16.645-5.997-32.086-14.294-45.988-24.436l-35.867 32.377-51.122-56.637 35.897-32.413c-8.708-14.956-15.345-31.174-19.606-48.223l-48.267 1.745-2.76-76.243 48.264-1.75c3.046-17.596 8.522-34.203 16.032-49.555l-38.082-29.685 46.9-60.174 38.158 29.736c13.294-11.201 28.14-20.525 44.079-27.651l-10.116-47.289 74.615-15.939 10.104 47.215c8.595-0.024 17.288 0.56 26.040 1.777 8.757 1.217 17.283 3.056 25.539 5.415l22.627-42.661 67.408 35.748-22.652 42.71c13.397 11.211 25.109 24.246 34.841 38.654l44.829-18.178 28.668 70.708-44.744 18.144c3.017 16.807 3.738 34.291 1.868 52.053l45.956 14.873-23.495 72.586zM726.368 104.368c-53.222-7.41-102.549 29.846-109.959 83.061-7.424 53.217 29.841 102.549 83.061 109.957 53.214 7.422 102.53-29.841 109.959-83.063 7.405-53.212-29.849-102.53-83.061-109.954zM1022.208 572.168l1.789 60.209-38.102 1.132c-2.388 13.269-6.657 26.409-12.92 39.043l29.922 23.639-37.332 47.255-29.917-23.63c-10.671 8.867-22.473 16.095-35.002 21.552l7.735 37.381-58.972 12.213-7.749-37.356c-13.59-0.020-27.272-1.948-40.681-5.896l-18.068 33.557-53.036-28.563 18.068-33.562c-10.666-9.011-19.819-19.396-27.321-30.719l-35.437 14.105-22.273-55.965 35.467-14.127c-2.335-13.465-2.789-27.277-1.257-41.067l-36.202-11.974 18.902-57.192 36.202 11.969c7.089-12.189 15.709-22.97 25.488-32.271l-20.024-32.435 51.247-31.648 20.068 32.494c12.92-4.635 26.47-7.459 40.221-8.346l5.505-37.777 59.607 8.705-5.491 37.73c6.361 2.34 12.639 5.156 18.784 8.466 6.151 3.305 11.957 7.009 17.413 11.025l28.475-25.353 40.060 44.976-28.494 25.382c6.833 11.979 11.918 24.847 15.164 38.183l38.161-1.134zM878.684 539.907c-37.356-20.112-84.105-6.092-104.207 31.25-20.119 37.346-6.097 84.105 31.259 104.207 37.337 20.117 84.083 6.087 104.202-31.259 20.1-37.349 6.087-84.083-31.254-104.197z" />
<glyph unicode="&#xe913;" glyph-name="icon_21" d="M417.961 92.738c-1.308 3.481-1.759 6.441-1.315 8.836 0.441 2.379-1.080 4.351-4.568 5.869s-5.229 2.724-5.229 3.584c0 0.869-2.5 1.526-7.512 1.956-5.009 0.437-7.509 0.659-7.509 0.659h-203.751c-28.734 0-53.335 10.222-73.8 30.699-20.461 20.463-30.69 45.057-30.69 73.786v459.759c0 28.734 10.227 53.326 30.69 73.789 20.465 20.465 45.066 30.701 73.8 30.701h208.977c5.661 0 10.113 1.404 13.386 4.241 3.26 2.829 5.433 7.077 6.526 12.736 1.089 5.659 1.745 10.769 1.965 15.341 0.215 4.568 0.11 10.341-0.329 17.306-0.432 6.963-0.65 11.316-0.65 13.066 0 5.659-2.070 10.547-6.203 14.692-4.138 4.126-9.033 6.197-14.692 6.197h-208.979c-51.805 0-96.107-18.395-132.899-55.183-36.783-36.788-55.178-81.083-55.178-132.892v-459.749c0-51.805 18.395-96.111 55.178-132.885 36.792-36.806 81.094-55.201 132.899-55.201h208.986c5.661 0 10.115 1.423 13.386 4.241 3.26 2.834 5.433 7.077 6.526 12.743 1.089 5.652 1.745 10.787 1.965 15.341 0.215 4.572 0.11 10.334-0.329 17.299-0.437 6.972-0.65 11.323-0.65 13.070zM1011.591 477.388l-355.262 355.273c-8.267 8.262-18.066 12.407-29.386 12.407s-21.119-4.145-29.395-12.407c-8.273-8.273-12.407-18.079-12.407-29.393v-188.082h-292.569c-11.327 0-21.119-4.145-29.393-12.407-8.273-8.273-12.407-18.073-12.407-29.393v-250.779c0-11.318 4.133-21.117 12.407-29.386 8.283-8.257 18.073-12.414 29.393-12.414h292.572v-188.080c0-11.311 4.133-21.119 12.407-29.386 8.273-8.273 18.073-12.416 29.395-12.416 11.318 0 21.117 4.142 29.386 12.416l355.26 355.257c8.273 8.28 12.409 18.066 12.409 29.388 0 11.318-4.136 21.126-12.409 29.4z" />
<glyph unicode="&#xe914;" glyph-name="icon_22" d="M545.392 399.316h366.236v-463.316h-366.236v463.316zM112.372 399.316h366.236v-463.316h-366.236v463.316zM797.524 771.136c9.906 18.15 15.544 38.948 15.544 61.042 0.002 70.482-57.34 127.822-127.82 127.822-52.13 0-105.47-26.936-146.336-73.902-10.114-11.622-19.122-24.112-26.912-37.12-7.79 13.008-16.798 25.498-26.912 37.12-40.866 46.966-94.204 73.902-146.336 73.902-70.48 0-127.822-57.342-127.822-127.822 0-22.092 5.636-42.892 15.544-61.042h-174.074v-305.038h426.208v305.038h66.782v-305.038h426.21v305.038h-174.076zM338.752 771.136c-33.656 0-61.040 27.384-61.040 61.042s27.384 61.040 61.040 61.040c60.598 0 118.212-61.986 134.978-122.080h-134.978zM685.248 771.136h-134.978c16.766 60.096 74.38 122.080 134.978 122.080 33.656 0 61.040-27.384 61.040-61.040-0.002-33.658-27.384-61.040-61.040-61.040z" />
<glyph unicode="&#xe915;" glyph-name="icon_23" d="M987.874 373.525l-37.408 57.488c-6.724 10.314-6.724 23.652 0 33.988l37.426 57.51c34.070 52.454 11.014 122.715-47.128 144.935l-64.036 24.534c-11.51 4.408-19.364 15.208-19.998 27.504l-3.524 68.484c-3.192 62.27-62.954 105.769-123.329 89.613l-66.212-17.81c-11.858-3.188-24.61 0.914-32.334 10.498l-43.124 53.34c-39.248 48.57-113.313 48.49-152.441-0.034l-43.124-53.31c-7.724-9.586-20.454-13.708-32.312-10.498l-66.212 17.798c-60.212 16.218-120.151-27.252-123.349-89.601l-3.524-68.496c-0.63-12.294-8.464-23.086-19.974-27.492l-64.036-24.514c-58.214-22.292-81.196-92.585-47.108-144.999l37.38-57.442c6.724-10.336 6.724-23.696 0.022-34.010l-37.402-57.488c-34.072-52.296-11.142-122.717 47.108-144.977l64.036-24.522c11.51-4.416 19.344-15.208 19.974-27.504l3.524-68.496c3.192-62.26 63.004-105.785 123.349-89.601l66.212 17.82c11.838 3.178 24.544-0.914 32.334-10.532l43.104-53.31c39.17-48.472 113.117-48.596 152.463-0.022l43.104 53.332c7.768 9.616 20.454 13.688 32.312 10.532l66.276-17.842c60.102-16.11 120.085 27.188 123.283 89.625l3.524 68.474c0.63 12.314 8.486 23.108 19.998 27.526l64.036 24.5c58.196 22.284 81.2 92.585 47.11 144.999zM376.824 628.102c36.86 0 66.842-29.984 66.842-66.842 0-36.86-29.984-66.842-66.842-66.842-36.86 0-66.842 29.984-66.842 66.842s29.984 66.842 66.842 66.842zM621.912 249.328c-36.86 0-66.842 29.984-66.842 66.842 0 36.86 29.984 66.842 66.842 66.842 36.86 0 66.842-29.984 66.842-66.842 0.002-36.86-29.982-66.842-66.842-66.842zM678.966 571.050l-311.932-311.93c-13.056-13.056-34.204-13.056-47.26 0-13.054 13.054-13.054 34.206 0 47.26l311.93 311.93c13.054 13.054 34.206 13.054 47.26 0 13.056-13.054 13.056-34.204 0.002-47.26z" />
<glyph unicode="&#xe916;" glyph-name="icon_24" d="M766.69 960h-509.381c-26.126 0-47.243-21.153-47.243-47.243v-929.495c0-26.107 21.136-47.26 47.243-47.26h509.379c26.090 0 47.245 21.153 47.245 47.26v929.495c0.017 26.107-21.153 47.243-47.243 47.243zM459.802 904.244h104.358c5.455 0 9.853-4.4 9.853-9.853s-4.398-9.853-9.853-9.853h-104.358c-5.417 0-9.853 4.4-9.853 9.853s4.436 9.853 9.853 9.853zM575.016 20.045h-126.050c-10.335 0-18.722 8.37-18.722 18.705 0 10.334 8.387 18.704 18.722 18.704h126.048c10.334 0 18.685-8.37 18.685-18.704 0.002-10.337-8.331-18.705-18.683-18.705zM754.886 130.305h-485.774v669.546h485.774v-669.546z" />
<glyph unicode="&#xe917;" glyph-name="icon_25" d="M934 838h-844c-13.854 0-26.824-3.406-38.558-9.020l458.558-458.558 102.778 98.774c0 0 0.008 0.010 0.010 0.014s0.010 0.008 0.010 0.008l359.774 359.754c-11.736 5.618-24.714 9.028-38.572 9.028zM1014.992 786.544l-338.566-338.548 338.554-338.554c5.614 11.734 9.020 24.704 9.020 38.558v600c0 13.846-3.398 26.814-9.008 38.544zM9.020 786.558c-5.614-11.734-9.020-24.704-9.020-38.558v-600c0-13.846 3.402-26.818 9.012-38.548l338.566 338.548-338.558 338.558zM634.004 405.574l-102.792-98.786c-5.86-5.86-13.536-8.79-21.21-8.79s-15.352 2.93-21.21 8.79l-98.792 98.79-338.572-338.55c11.736-5.618 24.714-9.028 38.572-9.028h844c13.854 0 26.824 3.406 38.558 9.020l-338.554 338.554z" />
<glyph unicode="&#xe918;" glyph-name="icon_26" d="M498.2 960c177.2 0 351.6-81.6 351.6-276.6 0-180-206.2-249.2-250.4-314.2-33.2-48.4-22.2-116.4-113.4-116.4-59.4 0-88.6 48.4-88.6 92.6 0 164.8 242.2 202 242.2 337.8 0 74.6-49.8 119-132.8 119-177.2 0-108-182.6-242.2-182.6-48.4 0-90 29-90 84.4-0.2 135.8 154.8 256 323.6 256zM491.2 163c62.2 0 113.4-51.2 113.4-113.6s-51-113.4-113.4-113.4-113.6 51-113.6 113.6c0.2 62.2 51.4 113.4 113.6 113.4z" />
<glyph unicode="&#xe919;" glyph-name="icon_27" d="M953.94-29.799c-0.771 8.53-0.771 14.726 0 18.609v502.459c0.775 10.853-0.387 17.447-3.489 19.77-3.102 2.326-9.304 3.489-18.609 3.489h-70.949v86.654c0 0-0.588 13.957-1.744 41.872-1.162 27.915-2.907 43.034-5.231 45.362-2.326 2.328-5.628 15.701-9.886 40.127-4.264 24.426-9.886 37.994-16.865 40.709-27.138 57.379-68.816 103.515-125.033 138.409-56.221 34.894-116.508 52.339-180.867 52.339-6.204 0-12.406-0.387-18.609-1.164-79.092 1.551-150.815-24.618-215.173-78.51s-102.741-119.606-115.147-197.146c-2.326-16.283-3.684-33.925-4.071-52.92s-0.387-40.127 0-63.389 0.582-40.709 0.582-52.342h-87.234c-5.428 0-8.917-1.354-10.468-4.071-1.551-2.715-1.938-7.173-1.164-13.376v-548.983c1.551-6.204 5.233-9.886 11.050-11.050 5.817-1.17 13.181-1.356 22.098-0.582 8.917 0.771 15.314 0.771 19.191 0h819.988c6.204 2.32 9.886 6.395 11.050 12.206 1.164 5.821 1.356 12.994 0.582 21.528zM589.892 225.505c-10.087-15.119-22.88-26.169-38.389-33.148 0-3.102 0.387-6.204 1.17-9.298l23.256-113.983h-133.754l23.262 108.168c1.551 6.204 2.326 12.019 2.326 17.447-14.732 7.753-26.557 18.803-35.476 33.148s-13.376 30.044-13.376 47.105c0 17.060 4.653 32.955 13.957 47.687 5.428 10.855 13.181 19.772 23.262 26.751 16.283 13.177 34.894 19.772 55.83 19.772h5.819v-0.010c23.262 0 42.26-9.298 56.992-27.915 20.16-17.834 30.241-39.934 30.241-66.29 0-17.838-5.040-34.318-15.119-49.435zM279.342 518.020c0 10.855-0.195 28.499-0.582 52.92-0.387 24.424-0.387 43.616 0 57.574s2.907 30.628 7.561 50.013c4.653 19.385 11.243 36.832 19.772 52.341 18.609 35.668 45.942 64.165 81.999 85.489s74.244 31.597 114.565 30.822c5.428 0.776 11.241 1.164 17.447 1.164 42.647 0 82.774-10.855 120.38-32.566 37.601-21.711 65.716-51.564 84.319-89.56 7.753-15.509 13.576-32.761 17.453-51.759 3.871-18.998 6.010-35.476 6.391-49.431 0.387-13.956 0.387-32.373 0-55.248-0.381-22.875-0.195-40.127 0.588-51.761l-469.893 0.002z" />
<glyph unicode="&#xe91a;" glyph-name="icon_28" d="M1023.984 463.701h-207.722c-1.726 73.438-15.576 144.757-41.281 212.432 48.236 26.536 91.793 59.92 129.823 99.566 73.738-87.774 115.679-197.39 119.179-311.998zM288.883 204.996c64.504 31.136 133.357 47.954 205.098 50.088v-294.677c-88.824 56.762-160.691 142.402-205.098 244.589zM530.035 609.495c75.793 2.137 148.557 19.689 216.813 52.304 23.568-63.17 36.333-129.634 38.015-198.095h-254.826v145.791zM530.035 640.897v294.68c88.811-56.746 160.678-142.37 205.098-244.589-64.504-31.123-133.357-47.954-205.098-50.091zM493.968 640.897c-71.727 2.137-140.563 18.968-205.098 50.104 44.404 102.203 116.274 187.827 205.098 244.573v-294.677zM277.154 661.796c68.256-32.612 141.002-50.167 216.798-52.304v-145.791h-254.81c1.695 68.462 14.444 134.942 38.012 198.095zM493.983 432.296v-145.791c-75.793-2.137-148.557-19.689-216.798-52.32-23.584 63.17-36.333 129.65-38.031 198.111h254.828zM530.035 255.101c71.727-2.15 140.578-18.968 205.114-50.088-44.404-102.219-116.274-187.843-205.114-244.573v294.662zM746.862 234.201c-68.256 32.612-141.018 50.167-216.827 52.304v145.791h254.826c-1.663-68.459-14.431-134.942-37.999-198.095zM883.516 799.377c-35.328-37.168-75.761-68.522-120.56-93.6-45.473 103.508-117.81 190.809-207.124 250.431 124.266-10.205 241.213-66.027 327.685-156.831zM468.168 956.208c-89.314-59.62-161.667-146.923-207.124-250.431-44.796 25.076-85.23 56.433-120.576 93.6 86.487 90.803 203.419 146.626 327.7 156.831zM119.195 775.699c38.031-39.646 81.588-73.030 129.823-99.566-25.689-67.691-39.554-138.994-41.281-212.432h-207.737c3.518 114.608 45.457 224.24 119.195 311.998zM0 432.296h207.753c1.726-73.469 15.592-144.773 41.281-212.448-48.252-26.536-91.808-59.92-129.823-99.55-73.738 87.761-115.692 197.374-119.21 311.998zM140.486 96.623c35.328 37.136 75.746 68.506 120.576 93.6 45.473-103.508 117.81-190.809 207.14-250.431-124.284 10.189-241.215 66.009-327.716 156.831zM555.832-60.208c89.314 59.62 161.667 146.923 207.124 250.431 44.828-25.107 85.277-56.464 120.592-93.6-86.487-90.806-203.435-146.641-327.716-156.831zM904.824 120.301c-38.015 39.615-81.556 72.998-129.823 99.566 25.705 67.675 39.554 138.978 41.281 212.432h207.722c-3.503-114.626-45.444-224.24-119.179-311.998z" />
<glyph unicode="&#xe91b;" glyph-name="icon_29" d="M880.916 891.044c0 38.085-30.872 68.956-68.956 68.956h-599.919c-38.085 0-68.956-30.872-68.956-68.956v-886.088c0-38.085 30.872-68.956 68.956-68.956h599.919c38.085 0 68.956 30.872 68.956 68.956v886.088zM768.852 419.473c-9.94 0-18.746 4.755-24.342 12.095-36.254-23.876-79.089-69.666-79.089-152.945 0 0-56.33 50.431-151.99 50.431-0.097 0-0.19 0-0.286 0s-0.19 0-0.286 0c-95.66 0-151.99-50.431-151.99-50.431 0 83.558-43.122 129.396-79.451 153.228-5.579-7.499-14.484-12.378-24.548-12.378-16.908 0-30.61 13.702-30.61 30.613 0 16.901 13.702 30.606 30.61 30.606 14.977 0 27.424-10.764 30.075-24.969 73.518-11.15 124.552-67.298 124.552-67.298 0 84.83 61.864 188.161 88.933 229.314-10.185 4.968-17.215 15.398-17.215 27.496 0 16.901 13.695 30.613 30.61 30.613 16.905 0 30.61-13.712 30.61-30.613 0-12.502-7.506-23.235-18.246-27.989 27.227-41.47 88.609-144.315 88.609-228.817 0 0 50.762 55.779 123.952 67.125 2.582 14.291 15.063 25.141 30.099 25.141 16.908 0 30.61-13.705 30.61-30.606 0.003-16.918-13.698-30.617-30.606-30.617z" />
<glyph unicode="&#xe91c;" glyph-name="icon_30" d="M888.582 832.443l135.418-135.422-633.467-633.467-390.533 390.524 135.418 135.422 255.115-255.106 498.049 498.049z" />
<glyph unicode="&#xe91d;" glyph-name="icon_31" d="M972.8 832h-921.6c-30.8 0-51.2-20.4-51.2-51.2v-665.6c0-30.8 20.4-51.2 51.2-51.2h921.6c30.8 0 51.2 20.4 51.2 51.2v665.6c0 30.8-20.4 51.2-51.2 51.2zM307.2 678.4c56.4 0 102.4-46 102.4-102.4s-46-102.4-102.4-102.4-102.4 46-102.4 102.4 46 102.4 102.4 102.4zM512 217.6h-409.6v102.4c0 138.2 409.6 138.2 409.6 0v-102.4zM870.4 166.4h-204.8c-30.8 0-51.2 20.4-51.2 51.2s20.4 51.2 51.2 51.2h204.8c30.8 0 51.2-20.4 51.2-51.2s-20.4-51.2-51.2-51.2zM870.4 371.2h-307.2c-30.8 0-51.2 20.4-51.2 51.2s20.4 51.2 51.2 51.2h307.2c30.8 0 51.2-20.4 51.2-51.2s-20.4-51.2-51.2-51.2zM870.4 576h-307.2c-30.8 0-51.2 20.4-51.2 51.2s20.4 51.2 51.2 51.2h307.2c30.8 0 51.2-20.4 51.2-51.2s-20.4-51.2-51.2-51.2z" />
<glyph unicode="&#xe91e;" glyph-name="icon_32" d="M764.263 855.358c-67.27 67.27-156.964 104.642-252.263 104.642s-184.993-37.372-254.131-104.642c-125.197-125.197-140.146-360.642-33.635-504.526l287.766-414.832 285.898 414.832c108.38 143.883 91.562 379.328-33.635 504.526zM515.737 474.161c-72.876 0-130.803 57.927-130.803 130.803s57.927 130.803 130.803 130.803 130.803-57.927 130.803-130.803-59.796-130.803-130.803-130.803z" />
<glyph unicode="&#xe91f;" glyph-name="icon_33" d="M972.8 806.4h-921.6c-25.6 0-51.2-25.6-51.2-51.2v-51.2h1024v51.2c0 25.6-25.6 51.2-51.2 51.2zM0 601.6v-460.8c0-25.6 25.6-51.2 51.2-51.2h921.6c25.6 0 51.2 25.6 51.2 51.2v460.8h-1024zM307.2 192h-153.6c-25.6 0-51.2 25.6-51.2 51.2s25.6 51.2 51.2 51.2h153.6c25.6 0 51.2-25.6 51.2-51.2s-25.6-51.2-51.2-51.2zM665.6 192h-153.6c-25.6 0-51.2 25.6-51.2 51.2s25.6 51.2 51.2 51.2h153.6c25.6 0 51.2-25.6 51.2-51.2s-25.6-51.2-51.2-51.2z" />
<glyph unicode="&#xe920;" glyph-name="icon_34" d="M693.417 153.701v439.433h-145.134v-439.433h145.134zM915.15 153.701v439.433h-145.134v-439.433h145.134zM987.717 681.827l-475.717 278.173-475.717-278.173c0 0-32.252-28.22 0-48.378h951.433c0-4.031 28.22 20.157 0 48.378zM475.717 153.701v439.433h-145.134v-439.433h145.134zM258.016 153.701v439.433h-149.165v-439.433h149.165zM955.465 105.323l-874.835-4.031-80.63-104.819v-60.472h1024v60.472l-68.535 108.85z" />
<glyph unicode="&#xe921;" glyph-name="icon_35" d="M751.976 191.721v0c-49.134 0-88.888 39.977-88.888 88.888v147.849c0 49.134 39.977 88.888 88.888 88.888h231.824c1.34 0 2.903 0 4.243 0v147.179c0 37.967-30.821 68.564-68.564 68.564h-850.914c-37.967 0-68.564-30.821-68.564-68.564v-619.983c0-37.967 30.821-68.564 68.564-68.564h850.691c37.967 0 68.564 30.821 68.564 68.564v147.179c-1.34 0-2.68 0-4.243 0h-231.6zM983.799 468.882h-231.824c-22.11 0-40.201-18.090-40.201-40.201v-147.849c0-22.11 18.090-40.201 40.201-40.201h231.824c22.11 0 40.201 18.090 40.201 40.201v147.849c0 22.11-17.867 40.201-40.201 40.201zM831.93 296.689c-32.161 0-58.068 25.907-58.068 58.068s25.907 58.068 58.068 58.068c32.161 0 58.068-25.907 58.068-58.068s-26.13-58.068-58.068-58.068zM799.993 859.052c-15.41 46.454-65.438 71.691-111.892 56.281l-348.629-115.242h479.951l-19.43 58.961z" />
<glyph unicode="&#xe922;" glyph-name="icon_36" d="M512 960c-282.316 0-512-229.684-512-512s229.684-512 512-512 512 229.684 512 512-229.684 512-512 512zM749.642 392.908h-237.642c-30.296 0-54.858 24.566-54.858 54.858v237.644c0 30.296 24.562 54.858 54.858 54.858s54.858-24.562 54.858-54.858v-182.788h182.784c30.296 0 54.858-24.558 54.858-54.858-0.002-30.29-24.564-54.856-54.858-54.856z" />
<glyph unicode="&#xe923;" glyph-name="icon_37" d="M235.759 482.941l16.13-73.299 80.046 38.359h1.206v-333.075h95.684v419.845h-82.034zM737.528 360.068c-29.624 21.291-70.283 30.294-110.317 30.294-10.344 0-18.118-0.156-27.144-1.43l9.026 64.363h163.354v81.454h-231.761l-27.702-220.278c17.448 2.592 33.533 3.753 56.767 3.753 83.911 0 118.092-26.541 118.092-69.769 0-44.525-43.274-63.894-83.889-63.894-38.068 0-76.136 11.617-94.836 20.62l-17.448-73.567c23.256-12.243 65.86-23.86 116.819-23.86 112.931 0 180.065 69.055 180.065 147.112-0.022 49.082-19.369 83.911-51.026 105.202zM903.585 896.464v-51.204c0-51.629-42.358-94.344-93.942-94.344h-4.803c-51.607 0-94.389 42.737-94.389 94.344v57.996h-102.766v-57.996c0-51.629-42.76-94.344-94.366-94.344h-4.736c-51.651 0-94.009 42.737-94.009 94.344v57.996h-104.487v-57.996c0-51.629-41.397-94.344-93.004-94.344h-4.781c-51.629 0-93.562 42.737-93.562 94.344v50.423c-60.23-19.771-102.744-76.114-102.744-142.51v-667.669c0-82.906 66.955-149.48 149.86-149.48h692.489c82.906 0 149.659 66.575 149.659 149.48v667.669c0.089 67.245-44.19 124.236-104.42 143.292zM933.7 99.287c0-47.987-38.582-87.083-86.57-87.083h-669.97c-47.987 0-86.704 39.096-86.704 87.083v474.334c0 32.684 26.272 58.622 58.979 58.622h725.441c32.707 0 58.845-25.937 58.845-58.622l-0.022-474.334zM212.369 797.004h4.759c14.834 0 28.015 6.255 36.974 16.688 7.395 8.579 11.729 19.369 11.729 31.589v0 66.374c0 13.404-5.25 25.558-13.985 34.404-0.089 0.067-0.089 0.179-0.156 0.246s-0.089-0.268-0.134-0.201c-8.869 8.78-21 13.851-34.449 13.851h-4.759c-13.471 0-25.625-5.071-34.494-13.851-0.022-0.067-0.067 0.067-0.134 0.022-0.089-0.089-0.29-0.067-0.357-0.112-8.757-8.869-14.276-20.911-14.276-34.337v0-66.418c0-12.198 4.602-23.011 11.997-31.589 8.981-10.455 22.43-16.666 37.286-16.666zM480.656 804.8c0.089-0.045 0.335-0.112 0.402-0.156 0.134-0.089 0.402 0.179 0.514 0.089 7.752-5.116 17.068-7.752 27.054-7.752h4.759c8.4 0 16.286 1.743 23.167 5.473 0.089 0.022 0.134-0.134 0.223-0.089 0.134 0.089-0.045 0.089 0.134 0.201 15.013 8.378 24.82 24.306 24.82 42.715v66.396c0 15.929-7.283 30.093-19.079 39.051-0.112 0.067-0.022 0.156-0.112 0.223l0.089-0.38c-8.154 6.121-18.208 9.361-29.221 9.361h-4.759c-12.667 0-24.195-4.446-32.885-12.332-0.022 0-0.045 0.156-0.045 0.156-0.112-0.089-0.536-0.089-0.626-0.179-9.718-8.959-16.152-21.67-16.152-35.924v-66.441c-0.022-16.755 8.825-31.589 21.715-40.414zM804.884 797.004h4.759c14.879 0 28.439 6.255 37.487 16.688 7.395 8.579 12.22 19.369 12.22 31.589v0 66.374c0 18.52-10.656 34.628-25.781 42.983-0.112 0.045-0.335 0.089-0.402 0.134-1.229 0.648-2.524 1.229-3.776 1.787-0.246 0.089-0.469 0.179-0.626 0.268-0.313 0.112-0.603 0.223-0.916 0.357-0.469 0.179-0.894 0.357-1.363 0.514-0.268 0.089-0.469 0.156-0.715 0.246-0.491 0.179-1.050 0-1.541 0.156-4.58 1.43-9.517 1.854-14.566 1.854h-4.759c-2.524 0-4.669 0.156-7.104-0.201-23.569-3.597-41.241-23.569-41.241-48.077v-66.441c-0.022-27.032 21.268-48.233 48.323-48.233z" />
<glyph unicode="&#xe924;" glyph-name="icon_38" d="M256 768h2.664c26.512 0 48.001 21.487 48.001 48.001v95.998c0 26.514-21.489 48.001-48.001 48.001h-2.664c-26.512 0-48.001-21.487-48.001-48.001v-95.998c0-26.514 21.489-48.001 48.001-48.001zM752.001 768h2.664c26.514 0 48.001 21.487 48.001 48.001v95.998c-0.002 26.514-21.489 48.001-48.003 48.001h-2.664c-26.512 0-48.001-21.487-48.001-48.001v-95.998c0.002-26.514 21.491-48.001 48.003-48.001zM896 832h-45.337v-15.999c0-52.937-43.063-96-96-96h-2.664c-52.937 0-96 43.063-96 96v15.999h-301.335v-15.999c0-52.937-43.065-96-96-96h-2.664c-52.937 0-96 43.063-96 96v15.999h-32c-70.688 0-128-57.312-128-128v-640c0-70.688 57.312-128 128-128h768c70.688 0 128 57.312 128 128v640c0 70.688-57.312 128-128 128zM960 64c0-35.311-28.689-64-64-64h-768c-35.279 0-64 28.689-64 64v512h896v-512zM334.672 416c0-43.45-35.223-78.672-78.672-78.672s-78.672 35.223-78.672 78.672c0 43.45 35.223 78.672 78.672 78.672s78.672-35.223 78.672-78.672zM590.672 416c0-43.45-35.223-78.672-78.672-78.672s-78.672 35.223-78.672 78.672c0 43.45 35.223 78.672 78.672 78.672s78.672-35.223 78.672-78.672zM846.672 416c0-43.45-35.223-78.672-78.672-78.672s-78.672 35.223-78.672 78.672c0 43.45 35.223 78.672 78.672 78.672s78.672-35.223 78.672-78.672zM334.672 160c0-43.45-35.223-78.672-78.672-78.672s-78.672 35.223-78.672 78.672c0 43.45 35.223 78.672 78.672 78.672s78.672-35.223 78.672-78.672zM590.672 160c0-43.45-35.223-78.672-78.672-78.672s-78.672 35.223-78.672 78.672c0 43.45 35.223 78.672 78.672 78.672s78.672-35.223 78.672-78.672zM846.672 160c0-43.45-35.223-78.672-78.672-78.672s-78.672 35.223-78.672 78.672c0 43.45 35.223 78.672 78.672 78.672s78.672-35.223 78.672-78.672z" />
<glyph unicode="&#xe925;" glyph-name="icon_39" d="M166.6 697.8h474.4v-41.6h-474.4v41.6zM166.6 468.8h428.6v-41.6h-428.6v41.6zM166.6 240h318.4v-41.6h-318.4v41.6zM988.4 810.2c0 70-55 125.8-124.8 126.8h-736.4c-50.4 0-91.6-41.2-91.6-91.6v-826.6c0-33 26.6-59.6 59.6-59.6h621.4c33 0 59.6 26.6 59.6 59.6v479.4h179.8c17.8 0 32.4 14.4 32.4 32.4v279.6zM693.2 0.6h-576.8c-22.8 0-41.4 18.6-41.4 41.4v803.4c0 27 22.8 50 52 50h640c-20.2-22.4-32.4-52.2-32.4-85.4v-768c0-22.8-18.6-41.4-41.4-41.4zM936 539.6h-159.6l-2 270.4c0 41.4 29.6 76.6 68.6 85.4h20.8v2c47-1.2 85.4-40.2 85.4-87.4l-0.2-257.4c0-7-5.8-13-13-13z" />
<glyph unicode="&#xe926;" glyph-name="icon_40" d="M512.002 406.654c-56.034 0-101.62-45.586-101.62-101.62 0-27.79 11.55-54.66 31.716-73.782v-91.75c0-38.546 31.36-69.906 69.906-69.906s69.906 31.36 69.906 69.906v91.75c20.156 19.11 31.714 45.986 31.714 73.782-0.004 56.034-45.592 101.62-101.622 101.62zM547.958 266.884c-9.702-9.142-15.266-21.92-15.266-35.060v-92.322c0-11.41-9.28-20.69-20.69-20.69-11.408 0-20.69 9.28-20.69 20.69v92.322c0 13.138-5.564 25.914-15.26 35.054-10.614 10.006-16.458 23.556-16.458 38.156 0 28.894 23.51 52.404 52.404 52.404s52.404-23.51 52.404-52.404c0.004-14.6-5.84-28.15-16.444-38.15zM809.958 540.248h-73.816v195.608c0 123.594-100.552 224.144-224.14 224.144-123.592 0-224.142-100.55-224.142-224.144v-195.608h-73.818c-40.706 0-73.822-33.118-73.822-73.822v-456.602c0-40.706 33.116-73.822 73.822-73.822h595.916c40.706 0 73.822 33.116 73.822 73.822v456.6c0 40.706-33.116 73.824-73.822 73.824zM337.072 735.856c0 96.454 78.472 174.928 174.928 174.928 96.454 0 174.926-78.474 174.926-174.928v-195.608h-349.854v195.608zM834.566 9.822v0c0-13.568-11.040-24.608-24.608-24.608h-595.916c-13.568 0-24.608 11.038-24.608 24.608v456.602c0 13.568 11.040 24.608 24.608 24.608h595.916c13.568 0 24.608-11.038 24.608-24.608v-456.602z" />
<glyph unicode="&#xe927;" glyph-name="icon_41" d="M901.602 581.036l100.215 100.209c4.318 4.318 6.741 10.171 6.741 16.277s-2.424 11.96-6.741 16.277l-239.463 239.46c-8.99 8.987-23.564 8.987-32.554 0l-46.984-46.98c-53.777 26.576-120.82 17.55-165.531-27.158l-104.848-104.845c-14.919 1.398-29.95 1.697-44.905 0.792l-73.33 73.33c-4.318 4.318-10.174 6.741-16.277 6.741s-11.96-2.424-16.277-6.741l-239.463-239.46c-4.318-4.318-6.741-10.171-6.741-16.277s2.424-11.96 6.744-16.277l36.142-36.145-14.294-143.671c-13.305-31.903-7.017-70.111 18.901-96.029 17.122-17.126 39.618-25.688 62.113-25.688 1.309 0 2.621 0.036 3.93 0.092-0.059-1.319-0.095-2.641-0.095-3.969 0-23.462 9.138-45.524 25.728-62.113 16.593-16.59 38.651-25.728 62.117-25.728 1.328 0 2.65 0.039 3.969 0.095-1.056-23.788 7.471-47.924 25.593-66.046 16.593-16.59 38.651-25.728 62.117-25.728 1.328 0 2.65 0.039 3.969 0.095-1.056-23.788 7.471-47.924 25.596-66.046 17.122-17.126 39.618-25.688 62.113-25.688 16.307 0 32.61 4.525 46.872 13.525 0.332-0.375 0.651-0.756 1.010-1.115l49.966-49.97c17.51-17.51 40.506-26.264 63.508-26.264 22.995 0 45.997 8.757 63.504 26.264 16.965 16.961 26.307 39.516 26.307 63.508 0 1.601-0.049 3.193-0.132 4.778 1.585-0.082 3.18-0.132 4.778-0.132 23.992 0 46.543 9.342 63.508 26.307 16.965 16.961 26.307 39.516 26.307 63.508 0 1.618-0.049 3.226-0.135 4.827 1.592-0.085 3.186-0.135 4.781-0.135 22.999 0 45.997 8.754 63.508 26.261 16.961 16.965 26.303 39.519 26.303 63.508 0 1.601-0.049 3.193-0.132 4.778 1.588-0.082 3.18-0.132 4.781-0.132 23.988 0 46.543 9.342 63.508 26.307 16.961 16.965 26.303 39.519 26.303 63.508s-9.342 46.543-26.303 63.508l-53.597 53.597c30.94 46.869 46.244 100.643 46.372 154.325 0.161 0.161 0.335 0.299 0.5 0.464zM746.073 904.43l206.912-206.908-57.908-57.904c-10.914 52.156-36.52 101.646-76.454 141.582l-97.89 97.89 25.34 25.34zM95.49 333.092c-16.3 16.3-16.3 42.824 0 59.124h-0.003l34.843 34.837c7.892 7.895 18.395 12.246 29.559 12.246s21.667-4.347 29.562-12.246 12.246-18.395 12.246-29.562-4.347-21.667-12.249-29.562l-34.833-34.837c-16.304-16.294-42.827-16.3-59.124 0zM216.727 229.171c-11.167 0-21.667 4.347-29.562 12.246s-12.246 18.395-12.246 29.562c0 11.157 4.341 21.647 12.226 29.542 0.007 0.007 0.013 0.013 0.023 0.023l66.388 66.391c7.892 7.895 18.395 12.246 29.559 12.246 11.167 0 21.667-4.347 29.562-12.246 16.297-16.297 16.3-42.814 0.013-59.114l-66.405-66.398c-7.892-7.905-18.395-12.252-29.559-12.252zM308.406 137.496c-11.167 0-21.667 4.347-29.562 12.246-16.3 16.3-16.3 42.824 0 59.124h-0.003l66.395 66.388c0.013 0.013 0.023 0.026 0.036 0.039l27.865 27.865c7.892 7.895 18.395 12.246 29.559 12.246s21.667-4.347 29.562-12.246 12.246-18.395 12.246-29.562c0-11.167-4.347-21.667-12.249-29.562l-94.29-94.29c-7.892-7.902-18.395-12.249-29.559-12.249zM370.519 58.063c-16.3 16.3-16.3 42.824 0 59.124l66.395 66.398c16.304 16.287 42.821 16.29 59.118-0.010 16.3-16.3 16.3-42.824 0-59.124l-66.385-66.391c-16.3-16.294-42.827-16.3-59.128 0.003zM888.586 309.15c0-11.693-4.554-22.683-12.821-30.953-8.267-8.267-19.256-12.821-30.95-12.821s-22.686 4.554-30.953 12.821l-13.15 13.15c-8.99 8.987-23.564 8.987-32.554 0-8.987-8.987-8.987-23.564 0-32.551l13.153-13.15c8.267-8.267 12.818-19.26 12.818-30.953s-4.554-22.683-12.818-30.953c-17.063-17.063-44.836-17.070-61.906 0l-13.15 13.15c-8.99 8.987-23.564 8.987-32.554 0-8.987-8.987-8.987-23.564 0-32.551l13.153-13.15c8.267-8.267 12.818-19.26 12.818-30.953s-4.554-22.686-12.821-30.953c-17.063-17.066-44.827-17.066-61.893-0.010-0.003 0.003-0.007 0.007-0.010 0.010-0.003 0.007-0.010 0.010-0.016 0.016l-13.137 13.134c-8.984 8.987-23.561 8.987-32.551-0.003-8.987-8.987-8.987-23.564 0.003-32.551l13.147-13.147c8.27-8.27 12.821-19.26 12.821-30.953s-4.554-22.686-12.821-30.953c-17.066-17.070-44.84-17.066-61.906 0l-49.486 49.486 47.595 47.599c34.248 34.251 34.248 89.979-0.003 124.23-12.667 12.667-28.276 20.638-44.649 23.932 4.331 10.493 6.603 21.838 6.603 33.534 0 23.462-9.138 45.524-25.728 62.113-16.593 16.59-38.651 25.728-62.117 25.728-11.693 0-23.038-2.272-33.531-6.603-3.298 16.373-11.266 31.982-23.936 44.649-16.593 16.593-38.651 25.728-62.117 25.728-13.199 0-25.952-2.89-37.536-8.372-3.597 16.073-11.647 30.838-23.577 42.768-16.593 16.59-38.651 25.728-62.117 25.728s-45.524-9.138-62.113-25.728l-1.338-1.338 8.78 88.259c0.684 6.866-1.749 13.676-6.633 18.556l-27.576 27.576 206.912 206.908 64.57-64.573c4.531-4.531 10.615-6.958 17.168-6.718 0.615 0.023 1.227 0.072 1.835 0.145 16.073 1.555 32.301 1.509 48.362-0.112l-14.301-146.663c-2.414-24.787 4.969-49.026 20.789-68.256 15.823-19.23 38.187-31.147 62.975-33.548 3.045-0.296 6.060-0.441 9.059-0.441 47.372 0 88.032 36.106 92.692 84.211l6.291 64.892 288.407-288.407c8.267-8.277 12.821-19.27 12.821-30.96zM821.366 459.608l-223.616 223.62c-1.444 1.447-3.048 2.634-4.735 3.614l4.393 45.33c1.227 12.654-8.037 23.906-20.69 25.133-12.663 1.24-23.909-8.033-25.136-20.69l-16.34-168.557c-2.506-25.882-25.616-44.896-51.485-42.39-12.542 1.217-23.86 7.244-31.867 16.978-8.007 9.73-11.739 21.996-10.519 34.541l17.385 178.303 91.080 91.080c38.132 38.135 100.179 38.135 138.311 0l97.92-97.923c77.338-77.335 90.62-197.389 35.3-289.038z" />
<glyph unicode="&#xe928;" glyph-name="icon_42" d="M705.515 595.122l-319.53-318.694h119.536v-329.143h398.942v329.143h119.536zM745.221 619.572c-22.779 185.156-180.349 329.143-371.357 329.143-206.472 0-373.864-167.602-373.864-373.864s167.393-373.864 373.864-373.864c30.093 0 58.514 3.344 86.936 10.658v20.271h-183.693l428.199 427.572 39.915-39.915zM399.987 458.658v-19.017c0-15.256-12.33-27.376-27.376-27.376-15.256 0-27.376 12.33-27.376 27.376v19.017c-16.091 4.807-30.72 13.793-42.423 26.122-10.449 11.076-9.822 28.421 1.254 38.87s28.421 9.822 38.87-1.254c7.941-8.359 18.39-12.957 29.884-12.957 22.57 0 41.169 18.39 41.169 41.169 0 22.57-18.39 41.169-41.169 41.169-52.872 0-95.922 43.050-95.922 95.922 0 43.468 29.048 80.039 68.545 91.951v19.017c0 15.256 12.33 27.376 27.376 27.376 15.256 0 27.376-12.33 27.376-27.376v-19.017c16.091-4.807 30.72-13.793 42.423-26.122 10.449-11.076 9.822-28.421-1.254-38.87s-28.421-9.822-38.87 1.254c-7.941 8.359-18.39 12.957-29.884 12.957-22.57 0-41.169-18.39-41.169-41.169 0-22.57 18.39-41.169 41.169-41.169 52.872 0 95.922-43.050 95.922-95.922 0-43.468-28.839-80.248-68.545-91.951z" />
<glyph unicode="&#xe929;" glyph-name="icon_43" d="M848.868 658.476l26.797 35.238c14.135 18.568 10.55 45.049-8.020 59.186l-68.996 52.54c-18.57 14.137-45.050 10.55-59.189-8.018l-26.795-35.132c43.889-21.733 83.662-50.324 118.582-85.245 6.226-6.119 12.028-12.238 17.621-18.568zM512 809.343c18.675 0 37.138-1.161 55.388-3.376v48.531h33.339c23.318 0 42.201 18.885 42.201 42.201v21.1c0 23.316-18.883 42.201-42.201 42.201h-177.453c-23.317 0-42.201-18.885-42.201-42.201v-21.1c0-23.316 18.884-42.201 42.201-42.201h33.339v-48.531c18.251 2.216 36.714 3.376 55.387 3.376zM512-64c232.843 0 421.584 188.742 421.584 421.585 0 105.818-38.928 202.458-103.284 276.415-37.561 43.256-83.874 78.704-136.097 103.814-39.248 18.885-81.976 31.756-126.814 37.664-18.145 2.427-36.608 3.587-55.388 3.587-18.779 0-37.242-1.266-55.388-3.587-206.678-27.114-366.197-203.935-366.197-417.892 0-232.842 188.743-421.585 421.585-421.585zM628.156 651.091c54.441-21.522 101.389-57.709 136.097-103.814 31.018-41.146 52.223-90.204 60.030-143.588 2.216-15.087 3.377-30.596 3.377-46.315h-317.666v315.872c0.634 0 1.373 0 2.005 0 15.087 0 29.962-1.055 44.415-3.165 25.006-3.482 48.954-9.917 71.741-18.99z" />
<glyph unicode="&#xe92a;" glyph-name="icon_44" d="M996.821 802.628h-969.642c-15.003 0-27.179-12.178-27.179-27.179v-654.903c0-14.999 12.189-27.177 27.179-27.177h969.644c14.997 0 27.179 12.178 27.179 27.177v654.903c-0.002 15.001-12.185 27.179-27.181 27.179zM360.748 191.37h-262.829v49.856h262.829v-49.856zM360.748 328.63h-262.829v49.832h262.829v-49.832zM451.356 469.875h-353.437v49.836h353.437v-49.836zM916.938 181.036h-38.297c2.255 46.564-19.203 95.503-19.203 95.503-7.265 16.134-51.588 30.101-51.588 30.101-23.661 8.318-23.826 16.635-23.826 16.635-46.485-91.605-81.785-0.27-81.785-0.27-3.255-12.33-51.079-26.859-51.079-26.859-13.964-5.383-19.89-13.419-19.89-13.419-20.656-30.666-23.066-98.892-23.066-98.892 0-1.053 0.123-1.884 0.197-2.799h-21.112v353.417h329.653v-353.417zM954.332 639.789c0-15.001-12.209-27.19-27.199-27.19h-829.189c-15.001 0-27.204 12.189-27.204 27.19v47.581c0 15.008 12.2 27.172 27.204 27.172h829.187c14.99 0 27.199-12.165 27.199-27.172v-47.581zM690.495 371.709c3.583-29.488 28.94-60.009 51.935-60.009 26.423 0 51.566 32.108 55.469 60.009 1.504 1.075 3.925 3.621 4.844 9.417 0 0 5.655 20.203-1.869 18.066 2.613 7.781 11.261 38.114-5.479 56.962 0 0-7.846 10.698-26.884 16.396l-8.885 3.074c-3.523 2.544-10.591 8.543-10.591 15.202 0 0-4.424-2.056-7.023-5.834 1.033 3.096 2.743 6.002 5.479 8.356 0 0-2.881-1.504-5.552-4.746-2.054-1.167-6.824-4.397-8.391-10.171l0.074 0.36c0 0-0.963 1.314-3.621 1.701-2.611 0.367-7.191-1.388-7.191-1.388s-27.787-10.843-35.812-35.839c0 0-4.808-11.304 1.504-44.512-8.912 4.222-2.839-17.628-2.839-17.628 0.919-5.818 3.382-8.34 4.833-9.417zM741.098 487.525c-1.357-1.884-2.519-4.238-3.058-7.108l-1.004 0.371c0.771 2.425 2.056 4.732 4.062 6.737z" />
<glyph unicode="&#xe92b;" glyph-name="icon_45" d="M716.8 379.733c-17.647 0-34.731-2.287-51.2-6.195v511.283c0 41.438-33.724 75.179-75.179 75.179h-429.909c-41.455 0-75.179-33.741-75.179-75.179v-873.626c0-41.455 33.724-75.196 75.179-75.196h429.892c16.64 0 32.239 5.598 45.244 15.582 25.19-9.933 52.497-15.582 81.152-15.582 122.334 0 221.867 99.533 221.867 221.867s-99.533 221.867-221.867 221.867zM618.889 356.642c-1.058-0.512-2.133-1.007-3.174-1.536-3.738-1.911-7.373-3.977-10.974-6.093-1.894-1.092-3.755-2.236-5.598-3.396-3.277-2.065-6.537-4.147-9.694-6.383-2.048-1.434-4.011-2.987-6.007-4.506-4.932-3.721-9.694-7.646-14.285-11.759-2.202-1.98-4.437-3.908-6.571-5.973-2.441-2.372-4.779-4.847-7.1-7.322-1.963-2.082-3.891-4.181-5.769-6.349-2.253-2.594-4.489-5.205-6.622-7.885-1.758-2.219-3.396-4.506-5.069-6.775-3.55-4.847-6.895-9.83-10.069-14.967-1.485-2.406-3.021-4.779-4.403-7.236-1.724-3.038-3.277-6.161-4.847-9.284-1.28-2.526-2.509-5.069-3.703-7.663-1.417-3.106-2.799-6.212-4.062-9.387-1.263-3.123-2.372-6.298-3.482-9.489-1.297-3.703-2.543-7.441-3.635-11.23-1.365-4.71-2.611-9.455-3.669-14.268-0.529-2.441-0.956-4.932-1.399-7.407-0.802-4.352-1.468-8.738-2.014-13.158-0.273-2.219-0.546-4.403-0.751-6.639-0.085-1.007-0.273-2.014-0.341-3.021h-376.183v648.55h512v-460.851c-4.301-1.792-8.431-3.908-12.578-5.973zM160.512 925.867h429.892c22.647 0 41.062-18.415 41.062-41.045v-27.221h-512v27.221c0 22.63 18.415 41.045 41.045 41.045zM597.794-29.201c-2.406-0.427-4.881-0.666-7.373-0.666h-429.909c-22.63 0-41.045 18.415-41.045 41.045v129.621h376.337c0.239-3.055 0.461-6.076 0.819-9.097 0.273-2.219 0.683-4.403 1.007-6.622 0.99-6.673 2.253-13.227 3.84-19.695 0.495-2.048 1.007-4.062 1.57-6.093 2.014-7.322 4.352-14.473 7.083-21.47 0.341-0.887 0.631-1.809 0.99-2.697 6.622-16.384 15.155-31.744 25.31-45.926 0.922-1.297 1.894-2.526 2.85-3.806 4.318-5.769 8.892-11.298 13.722-16.623 1.143-1.263 2.253-2.526 3.413-3.755 12.066-12.663 25.566-23.876 40.311-33.417 0.375-0.256 0.7-0.563 1.075-0.802zM716.8-29.867c-25.498 0-49.818 5.154-72.004 14.404l-3.84 1.741c-1.417 0.631-2.782 1.348-4.164 2.014-5.99 2.833-11.776 5.973-17.374 9.387-1.536 0.939-3.089 1.809-4.591 2.799-2.577 1.673-5.069 3.447-7.543 5.239-1.843 1.331-3.669 2.697-5.461 4.096-2.304 1.792-4.608 3.601-6.81 5.495-1.929 1.655-3.772 3.396-5.632 5.12-3.499 3.243-6.861 6.605-10.086 10.103-1.673 1.792-3.362 3.584-4.966 5.461-1.929 2.253-3.755 4.574-5.564 6.895-1.365 1.758-2.697 3.55-4.011 5.342-1.775 2.458-3.55 4.932-5.205 7.475-1.092 1.69-2.099 3.447-3.14 5.171-2.816 4.642-5.444 9.421-7.868 14.302-0.973 1.98-1.963 3.925-2.867 5.939-1.212 2.697-2.355 5.427-3.43 8.192-0.922 2.355-1.792 4.745-2.628 7.134-0.887 2.543-1.809 5.069-2.594 7.646-1.399 4.659-2.628 9.404-3.652 14.199-0.427 1.963-0.734 3.942-1.092 5.922-0.683 3.738-1.28 7.475-1.724 11.281-0.222 1.826-0.444 3.652-0.614 5.495-0.512 5.564-0.87 11.179-0.87 16.879 0 5.786 0.358 11.503 0.87 17.152 0.188 2.014 0.461 4.011 0.717 6.007 0.444 3.567 0.99 7.117 1.621 10.65 0.444 2.372 0.887 4.745 1.417 7.1 0.683 3.072 1.502 6.059 2.338 9.079 0.7 2.492 1.314 5.018 2.116 7.475 1.468 4.574 3.123 9.045 4.932 13.466 1.229 2.987 2.628 5.888 4.011 8.806 0.905 1.911 1.792 3.84 2.765 5.717 1.485 2.901 3.072 5.751 4.71 8.567 1.024 1.758 2.082 3.482 3.157 5.205 1.758 2.816 3.533 5.632 5.444 8.346 0.973 1.382 2.031 2.697 3.038 4.062 3.994 5.359 8.26 10.53 12.8 15.445 1.041 1.126 2.031 2.304 3.106 3.413 2.338 2.423 4.796 4.71 7.27 6.997 1.417 1.331 2.85 2.645 4.318 3.925 2.56 2.236 5.188 4.403 7.868 6.502 1.365 1.058 2.765 2.082 4.147 3.106 2.97 2.185 5.956 4.369 9.079 6.383 0.222 0.137 0.444 0.273 0.666 0.41 11.691 7.509 24.337 13.79 37.786 18.637 1.126 0.41 2.236 0.853 3.379 1.229l5.035 1.775c17.442 5.359 35.959 8.277 55.142 8.277 103.509 0 187.733-84.224 187.733-187.733s-84.224-187.733-187.733-187.733zM819.2 174.933h-85.333v85.333c0 9.438-7.646 17.067-17.067 17.067s-17.067-7.629-17.067-17.067v-85.333h-85.333c-9.421 0-17.067-7.629-17.067-17.067s7.646-17.067 17.067-17.067h85.333v-85.333c0-9.438 7.646-17.067 17.067-17.067s17.067 7.629 17.067 17.067v85.333h85.333c9.421 0 17.067 7.629 17.067 17.067s-7.646 17.067-17.067 17.067zM375.467 123.733c-37.649 0-68.267-30.618-68.267-68.267s30.618-68.267 68.267-68.267 68.267 30.618 68.267 68.267-30.618 68.267-68.267 68.267zM375.467 21.333c-18.825 0-34.133 15.309-34.133 34.133s15.309 34.133 34.133 34.133 34.133-15.309 34.133-34.133-15.309-34.133-34.133-34.133zM307.2 874.667h68.267c9.421 0 17.067 7.629 17.067 17.067s-7.646 17.067-17.067 17.067h-68.267c-9.421 0-17.067-7.629-17.067-17.067s7.646-17.067 17.067-17.067zM426.667 874.667h17.067c9.421 0 17.067 7.629 17.067 17.067s-7.646 17.067-17.067 17.067h-17.067c-9.421 0-17.067-7.629-17.067-17.067s7.646-17.067 17.067-17.067z" />
<glyph unicode="&#xe92c;" glyph-name="icon_46" d="M633.703 448l365.094 365.094c33.607 33.607 33.607 88.095 0 121.698-33.607 33.607-88.091 33.607-121.698 0l-365.099-365.099-365.099 365.104c-33.607 33.607-88.091 33.607-121.698 0-33.603-33.607-33.603-88.095 0-121.698l365.099-365.094-365.099-365.099c-33.603-33.607-33.603-88.095 0-121.698 33.607-33.607 88.091-33.607 121.698 0l365.099 365.099 365.099-365.099c33.603-33.607 88.091-33.607 121.698 0s33.607 88.091 0 121.698l-365.094 365.094z" />
<glyph unicode="&#xe92d;" glyph-name="icon_47" d="M964.55 45.471h-905.101c-32.737 0-59.45 26.713-59.45 59.712v685.897c0 32.737 26.713 59.45 59.45 59.45h905.101c32.737 0 59.45-26.713 59.45-59.45v-685.897c0-32.998-26.713-59.712-59.45-59.712zM79.877 76.374h863.984c27.237 0 49.236 21.999 49.236 49.236v645.041c0 27.237-21.999 49.236-49.236 49.236h-863.984c-27.237 0-49.236-21.999-49.236-49.236v-645.041c0-27.237 21.999-49.236 49.236-49.236zM303.795 211.773h-149.803c-19.904 0-36.141 16.237-36.141 36.141v149.803c0 19.904 16.237 36.141 36.141 36.141h149.803c19.904 0 36.141-16.237 36.141-36.141v-150.064c0-19.904-16.237-35.879-36.141-35.879zM171.278 242.414h114.971c12.571 0 22.785 10.214 22.785 22.785v114.971c0 12.571-10.214 22.785-22.785 22.785h-114.971c-12.571 0-22.785-10.214-22.785-22.785v-114.971c0.262-12.571 10.476-22.785 22.785-22.785zM239.108 494.617c-69.14-6.285-126.756 51.593-120.471 120.471 4.714 52.902 47.403 95.591 100.305 100.305 69.14 6.024 126.756-51.593 120.471-120.471-4.714-52.902-47.403-95.591-100.305-100.305zM237.537 684.751c-50.021 5.238-91.924-35.617-88.782-85.115 2.619-39.808 34.832-72.282 74.901-74.901 49.498-3.143 90.353 38.76 84.853 88.782-3.666 37.451-33.784 67.306-70.973 71.235zM547.355 715.916h337.318c8.381 0 15.452-6.809 15.452-15.452v0c0-8.381-6.809-15.452-15.452-15.452h-337.318c-8.381 0-15.452 6.809-15.452 15.452v0c0 8.642 7.071 15.452 15.452 15.452zM547.355 562.447h337.318c8.381 0 15.452-6.809 15.452-15.452v0c0-8.381-6.809-15.452-15.452-15.452h-337.318c-8.381 0-15.452 6.809-15.452 15.452v0c0 8.642 7.071 15.452 15.452 15.452zM547.355 409.24h337.318c8.381 0 15.452-6.809 15.452-15.452v0c0-8.381-6.809-15.452-15.452-15.452h-337.318c-8.381 0-15.452 6.809-15.452 15.452v0c0 8.642 7.071 15.452 15.452 15.452zM547.355 255.771h337.318c8.381 0 15.452-6.809 15.452-15.452v0c0-8.381-6.809-15.452-15.452-15.452h-337.318c-8.381 0-15.452 6.809-15.452 15.452v0c0 8.642 7.071 15.452 15.452 15.452z" />
<glyph unicode="&#xe92e;" glyph-name="icon_48" d="M596.125 873.58l13.878 62.455c1.289 5.827-0.131 11.922-3.866 16.597-3.75 4.655-9.385 7.368-15.364 7.368h-157.542c-5.979 0-11.614-2.714-15.364-7.363-3.73-4.675-5.155-10.77-3.866-16.597l13.878-62.46c-220.583-39.814-388.495-233.091-388.495-464.964 0-260.599 212.022-472.616 472.616-472.616s472.616 212.022 472.616 472.616c0.005 231.873-167.907 425.151-388.49 464.964zM566.232 920.616l-8.748-39.384h-90.963l-8.748 39.384h108.46zM512-24.621c-238.888 0-433.232 194.344-433.232 433.232s194.344 433.232 433.232 433.232 433.232-194.344 433.232-433.232-194.344-433.232-433.232-433.232zM571.079 408.616c0 25.638-16.511 47.293-39.384 55.45v299.008h-39.384v-299.013c-22.873-8.157-39.384-29.812-39.384-55.45 0-32.577 26.502-59.079 59.079-59.079 2.936 0 5.751 0.45 8.576 0.864l123.808-185.712 32.769 21.848-121.64 182.457c9.572 10.507 15.561 24.329 15.561 39.627zM512 388.921c-10.866 0-19.69 8.824-19.69 19.695 0 10.866 8.824 19.695 19.695 19.695 10.866 0 19.695-8.824 19.695-19.695s-8.834-19.695-19.7-19.695z" />
<glyph unicode="&#xe92f;" glyph-name="icon_49" d="M150.577 86.575c46.918-46.916 101.571-83.758 162.446-109.506 63.064-26.673 130.009-40.196 198.977-40.196s135.913 13.523 198.977 40.196c60.873 25.748 115.528 62.592 162.447 109.506 46.916 46.92 83.761 101.573 109.506 162.447 26.673 63.064 40.2 130.010 40.2 198.976 0 68.97-13.527 135.915-40.2 198.977-25.745 60.875-62.592 115.528-109.506 162.446-46.92 46.918-101.573 83.761-162.447 109.508-63.066 26.675-130.010 40.198-198.977 40.198-68.969 0-135.913-13.525-198.977-40.198-60.875-25.747-115.528-62.592-162.446-109.508s-83.761-101.571-109.51-162.444c-26.672-63.064-40.196-130.009-40.196-198.979 0-68.967 13.525-135.912 40.198-198.976 25.747-60.875 62.592-115.528 109.508-162.447zM512 884.51c241.079 0 436.51-195.433 436.51-436.512 0-241.077-195.431-436.508-436.51-436.508s-436.512 195.431-436.512 436.508c0 241.079 195.433 436.512 436.512 436.512zM512-63.998c-69.091 0-136.148 13.547-199.317 40.264-60.979 25.794-115.726 62.7-162.721 109.695-46.998 47-83.904 101.749-109.695 162.724-26.72 63.172-40.268 130.232-40.268 199.313 0 69.084 13.547 136.145 40.266 199.319 25.79 60.976 62.698 115.723 109.695 162.721s101.745 83.904 162.721 109.695c63.174 26.719 130.233 40.266 199.317 40.266 69.089 0 136.148-13.547 199.315-40.268 60.977-25.79 115.724-62.698 162.724-109.695 47-47.001 83.906-101.749 109.695-162.721 26.72-63.174 40.268-130.233 40.268-199.317 0-69.082-13.547-136.141-40.268-199.315-25.789-60.974-62.693-115.721-109.695-162.724-46.996-46.993-101.745-83.899-162.724-109.695-63.167-26.715-130.226-40.263-199.313-40.263zM512 958.256c-68.85 0-135.68-13.5-198.638-40.128-60.768-25.703-115.331-62.484-162.169-109.322-46.839-46.839-83.62-101.4-109.324-162.167-26.628-62.96-40.128-129.791-40.128-198.641 0-68.847 13.5-135.68 40.128-198.638 25.703-60.768 62.484-115.329 109.324-162.169 46.836-46.834 101.397-83.615 162.169-109.322 62.951-26.626 129.782-40.127 198.638-40.127s135.685 13.5 198.638 40.128c60.77 25.705 115.333 62.486 162.169 109.32 46.841 46.845 83.62 101.405 109.32 162.169 26.63 62.958 40.132 129.789 40.132 198.638s-13.502 135.682-40.132 198.638c-25.698 60.765-62.479 115.326-109.32 162.169-46.839 46.838-101.402 83.619-162.169 109.322-62.954 26.63-129.786 40.13-198.638 40.13zM512 10.619c-116.829 0-226.666 45.495-309.276 128.105-82.61 82.612-128.107 192.446-128.107 309.274s45.495 226.666 128.107 309.276c82.61 82.61 192.447 128.107 309.276 128.107s226.664-45.497 309.274-128.107c82.612-82.612 128.107-192.447 128.107-309.276s-45.495-226.664-128.107-309.274c-82.61-82.61-192.447-128.105-309.274-128.105zM512 883.639c-116.364 0-225.762-45.315-308.045-127.596-82.281-82.283-127.596-191.681-127.596-308.045s45.315-225.762 127.596-308.041c82.281-82.281 191.681-127.596 308.045-127.596s225.762 45.315 308.043 127.596c82.281 82.279 127.596 191.679 127.596 308.041 0 116.364-45.315 225.764-127.596 308.045-82.283 82.283-191.679 127.596-308.043 127.596zM398.85 261.912c6.997-6.998 16.486-10.926 26.381-10.926 9.897 0 19.384 3.929 26.381 10.926l319.415 319.413c14.57 14.57 14.57 38.192 0 52.761s-38.193 14.572-52.763 0l-293.032-293.034-119.495 119.497c-14.57 14.572-38.192 14.572-52.761 0-14.57-14.57-14.57-38.192 0-52.761l145.876-145.876zM425.231 250.115c-10.198 0-19.786 3.971-26.997 11.182l-145.876 145.876c-14.885 14.887-14.885 39.108 0 53.995 7.211 7.213 16.799 11.184 26.997 11.184s19.785-3.971 26.997-11.184l118.881-118.881 292.416 292.418c7.211 7.213 16.799 11.182 26.997 11.182 10.196 0 19.785-3.971 26.997-11.182s11.184-16.799 11.184-26.997-3.971-19.785-11.184-26.997l-319.415-319.413c-7.209-7.211-16.798-11.182-26.997-11.182zM279.354 470.608c-9.733 0-18.882-3.79-25.764-10.674-14.206-14.208-14.206-37.323 0-51.53l145.876-145.876c6.882-6.882 16.031-10.672 25.764-10.672 9.735 0 18.884 3.79 25.766 10.672l319.413 319.413c6.882 6.882 10.674 16.033 10.674 25.764s-3.792 18.884-10.674 25.766c-6.882 6.883-16.033 10.672-25.766 10.672s-18.884-3.79-25.766-10.672l-293.647-293.649-120.112 120.112c-6.882 6.883-16.031 10.674-25.764 10.674z" />
<glyph unicode="&#xe930;" glyph-name="icon_50" d="M150.577 86.575c46.918-46.916 101.571-83.758 162.446-109.506 63.064-26.673 130.009-40.196 198.977-40.196s135.913 13.523 198.977 40.196c60.873 25.748 115.528 62.592 162.447 109.506 46.916 46.92 83.761 101.573 109.506 162.447 26.673 63.064 40.2 130.010 40.2 198.976 0 68.97-13.527 135.915-40.2 198.977-25.745 60.875-62.592 115.528-109.506 162.446-46.92 46.918-101.573 83.761-162.447 109.508-63.066 26.675-130.010 40.198-198.977 40.198-68.969 0-135.913-13.525-198.977-40.198-60.875-25.747-115.528-62.592-162.446-109.508s-83.761-101.571-109.51-162.444c-26.672-63.064-40.196-130.009-40.196-198.979 0-68.967 13.525-135.912 40.198-198.976 25.747-60.875 62.592-115.528 109.508-162.447zM512 884.51c241.079 0 436.51-195.433 436.51-436.512 0-241.077-195.431-436.508-436.51-436.508s-436.512 195.431-436.512 436.508c0 241.079 195.433 436.512 436.512 436.512zM512-63.998c-69.091 0-136.148 13.547-199.317 40.264-60.979 25.794-115.726 62.7-162.721 109.695-46.998 47-83.904 101.749-109.695 162.724-26.72 63.172-40.268 130.232-40.268 199.313 0 69.084 13.547 136.145 40.266 199.319 25.79 60.976 62.698 115.723 109.695 162.721s101.745 83.904 162.721 109.695c63.174 26.719 130.233 40.266 199.317 40.266 69.089 0 136.148-13.547 199.315-40.268 60.977-25.79 115.724-62.698 162.724-109.695 47-47.001 83.906-101.749 109.695-162.721 26.72-63.174 40.268-130.233 40.268-199.317 0-69.082-13.547-136.141-40.268-199.315-25.789-60.974-62.693-115.721-109.695-162.724-46.996-46.993-101.745-83.899-162.724-109.695-63.167-26.715-130.226-40.263-199.313-40.263zM512 958.256c-68.85 0-135.68-13.5-198.638-40.128-60.768-25.703-115.331-62.484-162.169-109.322-46.839-46.839-83.62-101.4-109.324-162.167-26.628-62.96-40.128-129.791-40.128-198.641 0-68.847 13.5-135.68 40.128-198.638 25.703-60.768 62.484-115.329 109.324-162.169 46.836-46.834 101.397-83.615 162.169-109.322 62.951-26.626 129.782-40.127 198.638-40.127s135.685 13.5 198.638 40.128c60.77 25.705 115.333 62.486 162.169 109.32 46.841 46.845 83.62 101.405 109.32 162.169 26.63 62.958 40.132 129.789 40.132 198.638s-13.502 135.682-40.132 198.638c-25.698 60.765-62.479 115.326-109.32 162.169-46.839 46.838-101.402 83.619-162.169 109.322-62.954 26.63-129.786 40.13-198.638 40.13zM512 10.619c-116.829 0-226.666 45.495-309.276 128.105-82.61 82.612-128.107 192.446-128.107 309.274s45.495 226.666 128.107 309.276c82.61 82.61 192.447 128.107 309.276 128.107s226.664-45.497 309.274-128.107c82.612-82.612 128.107-192.447 128.107-309.276s-45.495-226.664-128.107-309.274c-82.61-82.61-192.447-128.105-309.274-128.105zM512 883.639c-116.364 0-225.762-45.315-308.045-127.596-82.281-82.283-127.596-191.681-127.596-308.045s45.315-225.762 127.596-308.041c82.281-82.281 191.681-127.596 308.045-127.596s225.762 45.315 308.043 127.596c82.281 82.279 127.596 191.679 127.596 308.041 0 116.364-45.315 225.764-127.596 308.045-82.283 82.283-191.679 127.596-308.043 127.596zM322.087 258.089c7.286-7.288 16.832-10.93 26.381-10.93s19.097 3.644 26.381 10.93l137.15 137.15 137.152-137.15c7.284-7.288 16.832-10.93 26.381-10.93s19.095 3.644 26.381 10.93c14.57 14.566 14.57 38.19 0 52.76l-137.153 137.15 137.15 137.152c14.57 14.57 14.57 38.193 0 52.761-14.566 14.57-38.19 14.57-52.76 0l-137.152-137.152-137.15 137.152c-14.57 14.57-38.193 14.57-52.761 0-14.57-14.57-14.57-38.192 0-52.761l137.152-137.152-137.152-137.15c-14.568-14.57-14.568-38.193 0.002-52.76zM675.532 246.286c-10.2 0-19.786 3.971-26.997 11.186l-136.535 136.535-136.533-136.535c-7.211-7.214-16.799-11.186-26.997-11.186s-19.786 3.971-26.997 11.186c-7.211 7.211-11.182 16.798-11.182 26.994 0 10.198 3.971 19.785 11.182 26.997l136.535 136.535-136.535 136.535c-14.885 14.887-14.885 39.108 0 53.995 7.211 7.211 16.798 11.182 26.997 11.182 10.198 0 19.786-3.971 26.997-11.182l136.535-136.535 136.535 136.535c7.213 7.211 16.799 11.182 26.997 11.182 10.196 0 19.783-3.971 26.994-11.182 7.213-7.211 11.182-16.799 11.182-26.997s-3.969-19.786-11.182-26.997l-136.535-136.535 136.539-136.535c7.213-7.213 11.184-16.799 11.184-26.997 0-10.196-3.971-19.783-11.184-26.994-7.216-7.213-16.803-11.186-26.999-11.186zM512 396.47l137.767-137.767c6.88-6.883 16.031-10.675 25.766-10.675 9.731 0 18.882 3.792 25.766 10.675 6.882 6.88 10.674 16.029 10.674 25.762s-3.792 18.884-10.674 25.766l-137.77 137.767 137.767 137.767c6.882 6.882 10.672 16.033 10.672 25.766s-3.79 18.882-10.672 25.764c-6.88 6.882-16.029 10.672-25.762 10.672s-18.884-3.79-25.766-10.672l-137.767-137.767-137.767 137.767c-6.882 6.882-16.033 10.672-25.766 10.672s-18.882-3.79-25.764-10.672c-14.206-14.208-14.206-37.323 0-51.53l137.767-137.767-137.767-137.767c-6.882-6.882-10.672-16.033-10.672-25.766s3.79-18.882 10.672-25.762c6.883-6.883 16.033-10.675 25.766-10.675s18.882 3.792 25.766 10.675l137.765 137.767z" />
<glyph unicode="&#xe931;" glyph-name="icon_51" d="M1016.049 467.191l-297.006 297.006c-5.088 5.092-11.993 7.951-19.191 7.951s-14.103-2.859-19.191-7.951l-51.182-51.182c-5.092-5.088-7.951-11.993-7.951-19.191s2.859-14.103 7.951-19.191l163.306-163.302h-765.644c-14.989 0-27.142-12.152-27.142-27.142v-72.378c0-14.989 12.152-27.142 27.142-27.142h765.644l-163.306-163.302c-5.092-5.088-7.951-11.993-7.951-19.191s2.859-14.103 7.951-19.191l51.182-51.182c5.088-5.092 11.993-7.951 19.191-7.951s14.103 2.859 19.191 7.951l297.006 297.006c10.6 10.596 10.6 27.782 0 38.382z" />
<glyph unicode="&#xe932;" glyph-name="icon_52" d="M883.2 582.2c-36.4 36.4-77 66.6-121 90.6l165.2 165.2c6.8 6.8 6.8 17.6 0 24.4s-17.6 6.8-24.4 0l-173.4-173.4c-68 31.2-142.4 47.6-219.4 47.6-140.8 0-273.4-54.8-373-154.4l-137.2-137.4 140.8-140.8c35-35 74.2-64.4 116.2-87.8l-158.2-158.2c-6.8-6.8-6.8-17.6 0-24.4 3.4-3.4 7.8-5 12.2-5s8.8 1.6 12.2 5l166 166c69.4-32.6 145.6-50 224.6-50 140.8 0 273.4 54.8 373 154.4l137.4 137.4-141 140.8zM282.4 241.6c-42.6 22.6-82 51.8-117 87l-116.4 116.4 112.8 112.8c93 93 216.8 144.4 348.4 144.4 67.6 0 132.8-13.6 193.2-39.2l-421-421.4zM862.2 328.6c-93-93-216.8-144.4-348.4-144.4-69.4 0-136.6 14.4-198.4 41.6l421.4 421.4c44.4-23 85.6-53 122-89.4l116.4-116.4-113-112.8zM511.6 668.6c-124 0-224.8-100.8-224.8-224.8 0-44 0-44 17.4-102.2l309.6 309.6c-42 16.2-58.2 17.4-102.2 17.4zM407 237.2c43.2-17.2 59.2-18.4 104.6-18.4 124 0 224.8 100.8 224.8 224.8 0 45.4-1.2 61.4-18.4 104.6l-311-311z" />
<glyph unicode="&#xe933;" glyph-name="icon_53" d="M877.793 585.011c-35.799 35.799-102.134 80.056-151.286 105.288s-140.329 46.92-216.207 46.92c-0.428 0.001-0.934 0.002-1.441 0.002-143.052 0-272.514-58.188-366.008-152.186l-135.355-135.355 138.711-138.711c33.165-33.166 70.773-61.888 111.855-85.198l2.587-1.351c8.827-5.459 19.248-10.936 30.048-15.714l1.696-0.67c64.729-31.060 140.717-49.206 220.943-49.206 143.605 0 273.631 58.14 367.823 152.166l-0.008-0.007 135.352 135.352zM857.047 335.155c-87.949-87.883-209.414-142.235-343.573-142.235-70.646 0-137.772 15.071-198.338 42.174l3.082-1.233-32.563 15.667c-44.197 23.873-82.166 52.36-115.355 85.618l-114.696 114.696 111.247 111.247c87.394 87.86 208.377 142.235 342.061 142.235 0.459 0 0.919-0.001 1.378-0.002h-0.071c59.74 0 120.279-13.496 172.032-31.334s141.517-81.039 171.377-110.899l114.688-114.688zM506.102 422.769c-2.58-2.908-5.12-5.837-7.66-8.765l8.192 8.192zM708.301 448c0-108.414-87.887-196.301-196.301-196.301s-196.301 87.887-196.301 196.301c0 108.414 87.887 196.301 196.301 196.301s196.301-87.887 196.301-196.301z" />
<glyph unicode="&#xe934;" glyph-name="icon_19" d="M782.858 397.307l-440.304-440.29c-28.009-28.022-73.42-28.022-101.415 0-27.997 27.997-27.997 73.406 0 101.401l389.601 389.589-389.589 389.576c-27.997 28.009-27.997 73.413 0 101.41 27.997 28.009 73.406 28.009 101.415 0l440.304-440.297c13.999-14.005 20.99-32.342 20.99-50.687 0-18.354-7.005-36.704-21.001-50.703z" />
<glyph unicode="&#xe935;" glyph-name="icon_54" d="M512-64c-282.308 0-512 229.672-512 512 0 282.308 229.692 512 512 512 282.328 0 512-229.692 512-512 0-282.328-229.672-512-512-512zM512 920.616c-260.587 0-472.616-212.026-472.616-472.616s212.026-472.616 472.616-472.616 472.616 212.026 472.616 472.616-212.029 472.616-472.616 472.616zM475.826 311.276l-176.915 176.918 27.843 27.843 149.072-149.070 268.446 268.446 27.843-27.845z" />
<glyph unicode="&#xe936;" glyph-name="icon_55" d="M512 960c-282.309 0-512-229.671-512-512s229.691-512 512-512 512 229.671 512 512-229.691 512-512 512zM512-24.615c-260.588 0-472.615 212.027-472.615 472.615s212.027 472.615 472.615 472.615 472.615-212.027 472.615-472.615-212.027-472.615-472.615-472.615zM703.153 639.153c-7.7 7.7-20.145 7.7-27.845 0l-163.308-163.308-163.308 163.308c-7.7 7.7-20.145 7.7-27.845 0s-7.7-20.145 0-27.845l163.308-163.308-163.308-163.308c-7.7-7.7-7.7-20.145 0-27.845 3.84-3.84 8.881-5.77 13.922-5.77s10.082 1.93 13.922 5.77l163.308 163.308 163.308-163.308c3.84-3.84 8.881-5.77 13.922-5.77s10.082 1.93 13.922 5.77c7.7 7.7 7.7 20.145 0 27.845l-163.308 163.308 163.308 163.308c7.7 7.7 7.7 20.145 0 27.845z" />
<glyph unicode="&#xe937;" glyph-name="icon_56" d="M1024 899.758l-59.364 59.233-452.636-451.773-452.638 451.773-59.362-59.233 452.638-451.776-452.638-451.741 59.362-59.231 452.638 451.741 452.636-451.741 59.364 59.231-452.67 451.741z" />
<glyph unicode="&#xe938;" glyph-name="icon_57" d="M35.663 650.503c19.7 0 35.663 15.967 35.663 35.663v152.057l229.693-229.645c6.966-6.961 16.091-10.442 25.216-10.442 9.13 0 18.259 3.481 25.221 10.447 13.928 13.928 13.928 36.509-0.005 50.432l-229.702 229.65h152.090c19.695 0 35.663 15.967 35.663 35.663s-15.963 35.663-35.663 35.663h-238.176c-19.7 0-35.663-15.967-35.663-35.663v-238.166c0-19.691 15.963-35.658 35.663-35.658zM988.337 245.497c-19.7 0-35.663-15.967-35.663-35.663v-152.062l-236.763 236.763c-13.932 13.928-36.509 13.928-50.437 0s-13.928-36.509 0-50.432l236.759-236.759h-152.052c-19.7 0-35.663-15.967-35.663-35.663s15.963-35.663 35.663-35.663h238.161c19.7 0 35.663 15.967 35.663 35.663v238.152c-0.005 19.695-15.972 35.663-35.668 35.663zM308.089 294.536l-236.74-236.759v152.057c0 19.695-15.963 35.663-35.663 35.663s-35.663-15.967-35.663-35.663v-238.161c0-19.695 15.963-35.663 35.663-35.663h238.152c19.695 0 35.663 15.967 35.663 35.663s-15.963 35.663-35.663 35.663h-152.057l236.744 236.768c13.928 13.928 13.928 36.509-0.005 50.437-13.918 13.923-36.5 13.923-50.432-0.005zM988.337 959.99h-238.161c-19.7 0-35.663-15.967-35.663-35.663s15.963-35.663 35.663-35.663h152.062l-229.659-229.674c-13.928-13.928-13.928-36.509 0.005-50.437 6.961-6.961 16.091-10.442 25.216-10.442s18.255 3.485 25.221 10.447l229.659 229.674v-152.066c0-19.695 15.963-35.663 35.663-35.663s35.663 15.967 35.663 35.663v238.161c-0.005 19.7-15.972 35.663-35.668 35.663z" />
<glyph unicode="&#xe939;" glyph-name="icon_58" d="M512 960c-61.44 0-116.053-13.653-170.667-27.307 0 0 0 0 0 0-95.573-34.133-177.493-95.573-238.933-177.493 0 0 0 0 0 0-61.44-88.747-102.4-191.147-102.4-307.2 0-279.893 232.107-512 512-512s512 232.107 512 512-232.107 512-512 512zM907.947 652.8c27.307-47.787 40.96-95.573 47.787-150.187l-61.44 68.267 13.653 81.92zM860.16 727.893l-34.133-143.36-102.4-47.787-177.493 129.707v129.707l129.707 68.267c75.093-27.307 136.533-75.093 184.32-136.533zM689.493 482.133l-75.093-191.147h-204.8l-75.093 191.147 177.493 129.707 177.493-129.707zM512 898.56c27.307 0 47.787 0 75.093-6.827l-75.093-40.96-75.093 40.96c27.307 0 47.787 6.827 75.093 6.827zM348.16 864.427l129.707-68.267v-122.88l-184.32-136.533-95.573 47.787-34.133 143.36c47.787 61.44 109.227 109.227 184.32 136.533zM116.053 652.8l20.48-81.92-68.267-68.267c6.827 54.613 20.48 102.4 47.787 150.187zM143.36 195.413c-40.96 61.44-68.267 129.707-75.093 211.627l109.227 116.053 95.573-47.787 75.093-211.627-61.44-75.093-143.36 6.827zM197.973 127.147l75.093-6.827 20.48-68.267c-34.133 20.48-68.267 47.787-95.573 75.093zM628.053 17.92c-34.133-6.827-75.093-13.653-116.053-13.653-47.787 0-95.573 6.827-136.533 20.48l-40.96 122.88 61.44 75.093h225.28l61.44-75.093-54.613-129.707zM709.973 45.227l34.133 81.92 95.573 20.48c-34.133-40.96-81.92-75.093-129.707-102.4zM737.28 188.587l-61.44 75.093 75.093 211.627 95.573 47.787 109.227-116.053c-6.827-68.267-27.307-129.707-61.44-184.32l-157.013-34.133z" />
<glyph unicode="&#xe93a;" glyph-name="icon_59" d="M512 823.467c-273.067 0-484.693-102.4-512-238.933 0 0 0-6.827 0-13.653v-238.933c0-68.267 40.96-122.88 102.4-170.667 0 0 0 0 6.827 0 95.573-61.44 238.933-102.4 402.773-102.4s307.2 40.96 402.773 102.4c0 0 0 0 6.827 0 61.44 47.787 102.4 102.4 102.4 163.84v245.76c0 0 0 6.827 0 6.827-20.48 136.533-232.107 245.76-512 245.76zM95.573 256.853c-20.48 27.307-27.307 47.787-27.307 68.267v102.4c6.827-13.653 20.48-13.653 27.307-20.48 0 0 0-150.187 0-150.187zM252.587 161.28c-34.133 13.653-61.44 27.307-88.747 47.787v157.013c27.307-13.653 61.44-27.307 95.573-34.133-6.827-6.827-6.827-170.667-6.827-170.667zM409.6 127.147c-34.133 0-61.44 6.827-95.573 13.653v170.667c34.133-6.827 68.267-6.827 95.573-13.653v-170.667zM539.307 120.32c-6.827 0-20.48 0-27.307 0s-20.48 0-27.307 0v170.667c6.827 0 20.48 0 27.307 0s20.48 0 27.307 0v-170.667zM703.147 140.8c-27.307-6.827-61.44-13.653-95.573-13.653v170.667c27.307 6.827 61.44 6.827 95.573 13.653v-170.667zM860.16 202.24c-27.307-13.653-61.44-27.307-95.573-40.96v163.84c34.133 6.827 68.267 20.48 95.573 34.133v-157.013zM955.733 325.12c0-20.48-6.827-47.787-27.307-68.267v143.36c6.827 6.827 20.48 13.653 27.307 20.48v-95.573zM955.733 557.227c0-95.573-177.493-197.973-443.733-197.973s-443.733 102.4-443.733 197.973c0 102.4 177.493 204.8 443.733 204.8 266.24-6.827 443.733-109.227 443.733-204.8v0 0z" />
<glyph unicode="&#xe93b;" glyph-name="icon_60" d="M512 960c-279.893 0-512-232.107-512-512s232.107-512 512-512 512 232.107 512 512-232.107 512-512 512zM191.147 762.027c102.4-75.093 163.84-191.147 163.84-314.027s-61.44-238.933-157.013-314.027c-177.493 177.493-177.493 450.56-6.827 628.053zM512-2.56c-95.573 0-191.147 34.133-273.067 95.573 109.227 81.92 177.493 218.453 177.493 354.987s-68.267 273.067-177.493 354.987c157.013 122.88 382.293 122.88 546.133 0-197.973-150.187-232.107-430.080-81.92-628.053 20.48-34.133 54.613-61.44 81.92-81.92-81.92-61.44-177.493-95.573-273.067-95.573zM832.853 133.973v0c-170.667 122.88-211.627 361.813-88.747 532.48 27.307 34.133 54.613 68.267 88.747 88.747 170.667-170.667 170.667-443.733 0-621.227z" />
<glyph unicode="&#xe93c;" glyph-name="icon_61" d="M873.813 809.813c-95.573 95.573-225.28 150.187-361.813 150.187s-266.24-54.613-361.813-150.187-150.187-225.28-150.187-361.813 54.613-266.24 150.187-361.813 225.28-150.187 361.813-150.187 266.24 54.613 361.813 150.187 150.187 225.28 150.187 361.813-54.613 266.24-150.187 361.813zM955.733 482.133c-88.747 20.48-170.667 61.44-238.933 129.707l129.707 129.707c68.267-75.093 102.4-163.84 109.227-259.413zM805.547 789.333l-136.533-136.533c-61.44 68.267-102.4 150.187-122.88 238.933 95.573-6.827 184.32-40.96 259.413-102.4zM477.867 891.733c20.48-109.227 75.093-204.8 150.187-286.72l-116.053-109.227-293.547 293.547c75.093 61.44 163.84 95.573 259.413 102.4zM170.667 741.547l293.547-293.547-109.227-116.053c-81.92 75.093-184.32 122.88-286.72 150.187 6.827 95.573 40.96 184.32 102.4 259.413zM68.267 413.867c88.747-20.48 170.667-61.44 238.933-129.707l-129.707-129.707c-68.267 75.093-102.4 163.84-109.227 259.413zM218.453 106.667l129.707 129.707c61.44-68.267 102.4-150.187 129.707-238.933-95.573 13.653-184.32 47.787-259.413 109.227zM546.133 4.267c-20.48 109.227-75.093 204.8-150.187 286.72l116.053 116.053 293.547-293.547c-75.093-68.267-163.84-102.4-259.413-109.227zM853.333 154.453l-293.547 293.547 116.053 116.053c75.093-75.093 177.493-122.88 279.893-150.187-6.827-95.573-40.96-184.32-102.4-259.413z" />
<glyph unicode="&#xe93d;" glyph-name="icon_62" d="M512 960c-279.893 0-512-232.107-512-512s232.107-512 512-512 512 232.107 512 512-232.107 512-512 512zM512-2.56c-245.76 0-450.56 197.973-450.56 450.56s197.973 450.56 450.56 450.56c150.187 0 286.72-75.093 368.64-191.147l-6.827-6.827c-88.747-34.133-177.493-27.307-259.413 20.48h-6.827c-47.787 34.133-102.4 47.787-157.013 47.787-177.493 0-320.853-143.36-320.853-320.853s143.36-320.853 320.853-320.853c54.613 0 109.227 13.653 163.84 40.96v6.827c75.093 47.787 170.667 54.613 252.587 20.48l6.827-6.827c-75.093-116.053-211.627-191.147-361.813-191.147zM894.293 250.027c-95.573 40.96-211.627 40.96-307.2-13.653l-6.827-6.827c-40.96-27.307-88.747-40.96-136.533-40.96-143.36 0-259.413 116.053-259.413 259.413s116.053 259.413 259.413 259.413c47.787 0 95.573-13.653 136.533-40.96l6.827-6.827c95.573-54.613 204.8-61.44 307.2-13.653l13.653 6.827c34.133-61.44 47.787-129.707 47.787-204.8s-20.48-143.36-47.787-204.8l-13.653 6.827z" />
<glyph unicode="&#xe93e;" glyph-name="icon_63" d="M512 960c-279.893 0-512-232.107-512-512s232.107-512 512-512 512 232.107 512 512-232.107 512-512 512zM512-2.56c-245.76 0-450.56 197.973-450.56 450.56s197.973 450.56 450.56 450.56c150.187 0 286.72-75.093 368.64-191.147l-6.827-6.827c-88.747-34.133-177.493-27.307-259.413 20.48h-6.827c-47.787 34.133-102.4 47.787-157.013 47.787-177.493 0-320.853-143.36-320.853-320.853s143.36-320.853 320.853-320.853c54.613 0 109.227 13.653 163.84 40.96v6.827c75.093 47.787 170.667 54.613 252.587 20.48l6.827-6.827c-75.093-116.053-211.627-191.147-361.813-191.147zM894.293 250.027c-95.573 40.96-211.627 40.96-307.2-13.653l-6.827-6.827c-40.96-27.307-88.747-40.96-136.533-40.96-143.36 0-259.413 116.053-259.413 259.413s116.053 259.413 259.413 259.413c47.787 0 95.573-13.653 136.533-40.96l6.827-6.827c95.573-54.613 204.8-61.44 307.2-13.653l13.653 6.827c34.133-61.44 47.787-129.707 47.787-204.8s-20.48-143.36-47.787-204.8l-13.653 6.827z" />
<glyph unicode="&#xe93f;" glyph-name="icon_64" d="M512 960c-279.893 0-512-232.107-512-512s232.107-512 512-512 512 232.107 512 512-232.107 512-512 512zM955.733 516.267c-102.4 34.133-259.413 54.613-443.733-34.133-68.267 47.787-116.053 95.573-150.187 150.187 259.413 109.227 477.867 13.653 566.613-40.96 13.653-20.48 20.48-47.787 27.307-75.093zM512 898.56c157.013 0 300.373-81.92 375.467-204.8-122.88 54.613-320.853 102.4-552.96 0-20.48 47.787-34.133 102.4-40.96 143.36 61.44 34.133 136.533 61.44 218.453 61.44zM232.107 796.16c20.48-116.053 88.747-252.587 245.76-361.813-6.827-88.747-27.307-157.013-61.44-211.627-184.32 150.187-252.587 334.507-279.893 471.040 27.307 40.96 61.44 75.093 95.573 102.4zM286.72 65.707c-136.533 75.093-225.28 218.453-225.28 382.293 0 54.613 13.653 109.227 27.307 157.013 34.133-136.533 116.053-300.373 293.547-436.907-34.133-47.787-68.267-81.92-95.573-102.4zM471.040 4.267c-40.96 6.827-81.92 13.653-122.88 27.307 81.92 68.267 177.493 197.973 191.147 395.947 68.267 34.133 129.707 47.787 191.147 54.613-27.307-238.933-150.187-389.12-259.413-477.867zM566.613 4.267c102.4 102.4 204.8 252.587 225.28 477.867 61.44 0 116.053-20.48 163.84-34.133 0-232.107-170.667-416.427-389.12-443.733z" />
<glyph unicode="&#xe940;" glyph-name="icon_65" d="M1010.347 871.253c-6.827 34.133-40.96 68.267-75.093 75.093-109.227 20.48-211.627 20.48-314.027 0 0 0 0 0-6.827 0-143.36-34.133-279.893-109.227-389.12-211.627-102.4-109.227-177.493-245.76-204.8-389.12 0 0 0 0 0-6.827-20.48-102.4-27.307-211.627 0-314.027 6.827-34.133 34.133-68.267 75.093-75.093 47.787-6.827 102.4-13.653 157.013-13.653 204.8 0 395.947 81.92 546.133 225.28 109.227 109.227 177.493 238.933 211.627 382.293 0 6.827 0 6.827 0 13.653 20.48 102.4 20.48 211.627 0 314.027zM102.4 17.92c-13.653 0-20.48 13.653-20.48 27.307-13.653 75.093-13.653 150.187-6.827 225.28l259.413-266.24c-75.093-6.827-157.013-6.827-232.107 13.653zM750.933 209.067c-95.573-95.573-211.627-157.013-341.333-191.147l-327.68 327.68c34.133 129.707 95.573 245.76 191.147 341.333s211.627 157.013 341.333 191.147l327.68-327.68c-27.307-129.707-95.573-245.76-191.147-341.333zM955.733 625.493l-266.24 266.24c27.307 0 61.44 6.827 88.747 6.827 47.787 0 95.573-6.827 143.36-13.653 13.653 0 20.48-13.653 27.307-20.48 13.653-81.92 13.653-163.84 6.827-238.933zM696.32 502.613l-40.96 40.96 40.96 40.96c13.653 13.653 13.653 34.133 0 47.787s-34.133 13.653-47.787 0l-40.96-40.96-40.96 40.96c-13.653 13.653-34.133 13.653-47.787 0-6.827-13.653-6.827-34.133 0-47.787l40.96-40.96-47.787-47.787-40.96 40.96c-13.653 13.653-34.133 13.653-47.787 0s-13.653-34.133 0-47.787l40.96-40.96-47.787-47.787-40.96 40.96c-13.653 6.827-34.133 6.827-47.787 0-13.653-13.653-13.653-34.133 0-47.787l40.96-40.96-40.96-40.96c-13.653-13.653-13.653-34.133 0-47.787 6.827-6.827 13.653-6.827 20.48-6.827s13.653 0 20.48 6.827l40.96 40.96 40.96-40.96c6.827-6.827 13.653-6.827 20.48-6.827s13.653 0 20.48 6.827c13.653 13.653 13.653 34.133 0 47.787l-27.307 40.96 47.787 47.787 40.96-40.96c6.827-6.827 13.653-6.827 20.48-6.827s13.653 0 20.48 6.827c20.48 13.653 20.48 34.133 6.827 47.787l-40.96 40.96 47.787 47.787 40.96-40.96c6.827-6.827 13.653-6.827 20.48-6.827s13.653 0 20.48 6.827c20.48 13.653 20.48 34.133 6.827 47.787z" />
<glyph unicode="&#xe941;" glyph-name="icon_66" d="M948.907 304.64c20.48 20.48 75.093 81.92 75.093 129.707s-61.44 129.707-150.187 197.973c-61.44 47.787-191.147 122.88-361.813 122.88-163.84 0-293.547-75.093-354.987-122.88-88.747-61.44-150.187-143.36-157.013-197.973 0-40.96 40.96-95.573 61.44-122.88 6.827-6.827 6.827-6.827 13.653-13.653 88.747-88.747 252.587-184.32 436.907-184.32s348.16 95.573 436.907 191.147zM102.4 345.6c-34.133 40.96-54.613 75.093-54.613 88.747s13.653 34.133 34.133 68.267c20.48 20.48 47.787 54.613 102.4 95.573 6.827 0 6.827 6.827 13.653 6.827v-341.333c-40.96 20.48-75.093 47.787-95.573 81.92zM512 161.28c-81.92 0-163.84 20.48-245.76 61.44-6.827 6.827-20.48 6.827-27.307 13.653v395.947c68.267 40.96 157.013 75.093 266.24 75.093 102.4 0 191.147-34.133 259.413-68.267v-409.6c-68.267-40.96-157.013-68.267-252.587-68.267zM819.2 256.853v354.987c6.827-6.827 20.48-13.653 27.307-20.48 27.307-20.48 47.787-40.96 68.267-54.613 47.787-47.787 68.267-81.92 68.267-102.4 0-13.653-20.48-54.613-61.44-95.573-34.133-27.307-68.267-54.613-102.4-81.92zM689.493 386.56v27.307h20.48c13.653 0 20.48 13.653 20.48 20.48 0 13.653-13.653 20.48-20.48 20.48h-20.48v27.307c0 13.653-13.653 20.48-20.48 20.48s-20.48-13.653-20.48-20.48v-27.307h-34.133v27.307c0 13.653-13.653 20.48-20.48 20.48-13.653 0-20.48-13.653-20.48-20.48v-27.307h-40.96v27.307c0 13.653-13.653 20.48-20.48 20.48-13.653 0-20.48-13.653-20.48-20.48v-27.307h-34.133v27.307c0 13.653-13.653 20.48-20.48 20.48-13.653 0-20.48-13.653-20.48-20.48v-27.307h-34.133v27.307c0 13.653-13.653 20.48-20.48 20.48-13.653 0-20.48-13.653-20.48-20.48v-27.307h-6.827c-13.653 0-20.48-13.653-20.48-20.48s0-13.653 6.827-13.653 6.827-6.827 13.653-6.827h6.827v-27.307c0-6.827 0-13.653 6.827-13.653 6.827-6.827 6.827-6.827 13.653-6.827 13.653 0 20.48 13.653 20.48 20.48v20.48h34.133v-27.307c0-6.827 0-13.653 6.827-13.653 6.827-6.827 6.827-6.827 13.653-6.827 13.653 0 20.48 13.653 20.48 20.48v27.307h34.133v-27.307c0-6.827 0-13.653 6.827-13.653 6.827-6.827 6.827-6.827 13.653-6.827 13.653 0 20.48 13.653 20.48 20.48v27.307h40.96v-27.307c0-6.827 0-13.653 6.827-13.653 6.827-6.827 6.827-6.827 13.653-6.827 13.653 0 20.48 13.653 20.48 20.48v27.307h34.133v-27.307c0-6.827 0-13.653 6.827-13.653 6.827-6.827 6.827-6.827 13.653-6.827s20.48 13.653 20.48 27.307z" />
<glyph unicode="&#xe942;" glyph-name="icon_67" d="M996.693 495.787l-177.493 40.96-20.48 170.667c0 13.653-13.653 27.307-27.307 27.307l-163.84 20.48-20.48 177.493c0 6.827-6.827 13.653-13.653 20.48s-13.653 6.827-27.307 6.827l-177.493-34.133c-13.653 0-20.48-6.827-27.307-20.48l-177.493-532.48-81.92-88.747-20.48-20.48c-34.133-34.133-54.613-81.92-54.613-136.533s20.48-102.4 54.613-136.533c34.133-34.133 81.92-54.613 136.533-54.613s102.4 20.48 136.533 54.613l102.4 102.4 532.48 177.493c13.653 6.827 20.48 13.653 20.48 27.307l34.133 163.84c0 13.653-6.827 34.133-27.307 34.133zM593.92 693.76l150.187-13.653 13.653-150.187-402.773-286.72-54.613 47.787 293.547 402.773zM395.947 864.427l129.707 27.307 20.48-157.013-293.547-395.947-27.307 27.307 170.667 498.347zM102.4 38.4c-27.307 27.307-34.133 54.613-34.133 88.747s13.653 68.267 34.133 88.747l184.32-184.32c-54.613-40.96-136.533-40.96-184.32 6.827zM327.68 79.36l-184.32 184.32 47.787 47.787 184.32-184.32-47.787-47.787zM935.253 331.947l-505.173-170.667-27.307 27.307 395.947 286.72 157.013-34.133-20.48-109.227z" />
<glyph unicode="&#xe943;" glyph-name="icon_68" d="M436.907 598.187h-13.653c-6.827 0-13.653-6.827-13.653-13.653s6.827-20.48 13.653-20.48h13.653c6.827 0 20.48 6.827 20.48 13.653s-6.827 20.48-20.48 20.48v0zM491.52 598.187h-6.827c-6.827 0-13.653-6.827-13.653-13.653s6.827-13.653 13.653-13.653h13.653c6.827 0 13.653 6.827 13.653 13.653s-6.827 13.653-20.48 13.653zM382.293 605.013h-13.653c-6.827 0-20.48-6.827-20.48-13.653s6.827-20.48 13.653-20.48h13.653c6.827 0 20.48 6.827 20.48 13.653s-6.827 13.653-13.653 20.48v0zM552.96 598.187h-13.653c-6.827 0-13.653-6.827-13.653-20.48 0-6.827 6.827-20.48 13.653-20.48v0h13.653c6.827 0 13.653 6.827 13.653 20.48s-6.827 20.48-13.653 20.48zM197.973 591.36h13.653c6.827 0 20.48 6.827 20.48 13.653s-6.827 20.48-13.653 20.48h-13.653c-6.827 0-20.48-6.827-20.48-13.653s6.827-13.653 13.653-20.48v0zM327.68 605.013h-13.653c-6.827 0-20.48-6.827-20.48-13.653s6.827-20.48 13.653-20.48v0h13.653c13.653 0 20.48 6.827 20.48 20.48 0 6.827-6.827 13.653-13.653 13.653v0zM252.587 584.533h13.653c6.827 0 20.48 6.827 20.48 13.653s-6.827 13.653-13.653 20.48v0h-13.653c-6.827 0-20.48-6.827-20.48-13.653 0-13.653 6.827-20.48 13.653-20.48v0zM143.36 605.013h13.653c6.827 0 20.48 6.827 20.48 13.653s-6.827 20.48-13.653 20.48h-13.653c-6.827 0-20.48-6.827-20.48-13.653s6.827-20.48 13.653-20.48v0zM607.573 598.187h-13.653c-6.827 0-13.653-6.827-13.653-20.48 0-6.827 6.827-13.653 20.48-13.653v0h13.653c6.827 0 13.653 6.827 13.653 20.48 0 0 0 0 0 0-6.827 6.827-13.653 13.653-20.48 13.653zM819.2 605.013c0 0 0 0 0 0l13.653 6.827c6.827 0 13.653 13.653 13.653 20.48s-13.653 13.653-20.48 13.653h-13.653c-6.827 0-13.653-13.653-13.653-20.48 6.827-13.653 13.653-20.48 20.48-20.48v0zM873.813 625.493c0 0 0 0 0 0h13.653c6.827 0 13.653 13.653 6.827 20.48 0 6.827-13.653 13.653-20.48 6.827l-13.653-6.827c-6.827 0-13.653-13.653-6.827-20.48 6.827 0 13.653 0 20.48 0v0zM764.587 591.36c0 0 0 0 0 0h13.653c6.827 0 13.653 13.653 13.653 20.48s-13.653 13.653-20.48 13.653h-13.653c-6.827 0-13.653-6.827-13.653-20.48 0-6.827 6.827-13.653 20.48-13.653v0 0zM716.8 611.84h-13.653c-6.827 0-13.653-6.827-13.653-20.48s6.827-13.653 20.48-13.653v0h13.653c6.827 0 13.653 13.653 13.653 20.48 0 13.653-13.653 20.48-20.48 13.653v0zM662.187 605.013h-13.653c-6.827 0-13.653-6.827-13.653-20.48 0-6.827 6.827-13.653 20.48-13.653v0h13.653c6.827 0 13.653 6.827 13.653 20.48-6.827 6.827-13.653 13.653-20.48 13.653v0zM498.347 413.867c0-6.827 6.827-20.48 13.653-20.48v0h13.653c6.827 0 13.653 6.827 13.653 20.48 0 6.827-6.827 13.653-20.48 13.653h-13.653c0 0-6.827-6.827-6.827-13.653zM382.293 420.693c0-6.827 6.827-20.48 13.653-20.48 0 0 0 0 0 0h13.653c6.827 0 20.48 6.827 20.48 13.653s-6.827 20.48-13.653 20.48h-13.653c-13.653 0-20.48-6.827-20.48-13.653 0 0 0 0 0 0zM436.907 413.867c0-6.827 6.827-13.653 13.653-13.653 0 0 0 0 0 0h13.653c6.827 0 13.653 6.827 13.653 13.653s0 13.653-13.653 13.653h-6.827c-6.827 6.827-20.48-6.827-20.48-13.653zM273.067 434.347c-6.827-13.653 0-20.48 13.653-20.48 0 0 0 0 0 0h13.653c6.827 0 20.48 6.827 20.48 13.653s-6.827 20.48-13.653 20.48v0h-13.653c-13.653 0-20.48-6.827-20.48-13.653zM218.453 441.173c0-6.827 6.827-20.48 13.653-20.48h13.653c6.827 0 20.48 6.827 20.48 13.653s-6.827 20.48-13.653 20.48v0h-13.653c-13.653 6.827-20.48 0-20.48-13.653zM150.187 454.827c0 6.827 0 20.48-13.653 20.48 0 0 0 0 0 0l-13.653 6.827c-6.827 0-13.653 0-20.48-13.653 0-6.827 0-20.48 13.653-20.48 0 0 0 0 0 0h13.653c6.827-6.827 13.653 0 20.48 6.827 0 0 0 0 0 0v0zM204.8 448c0 6.827-6.827 20.48-13.653 20.48 0 0 0 0 0 0h-13.653c-6.827 0-20.48-6.827-20.48-13.653s6.827-13.653 13.653-20.48h13.653c0 0 0 0 6.827 0s13.653 0 13.653 13.653zM327.68 427.52c0-13.653 6.827-20.48 13.653-20.48h13.653c6.827 0 20.48 6.827 20.48 13.653s-6.827 20.48-13.653 20.48v0h-13.653c-13.653 0-20.48-6.827-20.48-13.653zM873.813 468.48c0 6.827-13.653 13.653-20.48 13.653h-13.653c-6.827 0-13.653-13.653-13.653-20.48s13.653-13.653 20.48-13.653h13.653c13.653 0 13.653 6.827 13.653 20.48 0 0 0 0 0 0zM907.947 495.787l-13.653-6.827c-6.827 0-13.653-6.827-6.827-20.48 0-6.827 13.653-13.653 20.48-13.653l13.653 6.827c6.827 0 13.653 13.653 13.653 20.48-6.827 13.653-20.48 13.653-27.307 13.653v0zM819.2 454.827c0 6.827-13.653 13.653-20.48 13.653 0 0 0 0 0 0h-13.653c-6.827 0-13.653-6.827-13.653-20.48 0-6.827 6.827-13.653 20.48-13.653 0 0 0 0 6.827 0h13.653c6.827 0 6.827 6.827 6.827 20.48 0-6.827 0-6.827 0 0zM723.627 427.52c0-6.827 6.827-13.653 20.48-13.653v0h13.653c6.827 0 13.653 13.653 13.653 20.48s-13.653 13.653-20.48 13.653h-13.653c-13.653 0-20.48-6.827-13.653-20.48 0 0 0 0 0 0zM552.96 413.867c0-6.827 6.827-13.653 13.653-13.653v0h13.653c6.827 0 13.653 6.827 13.653 20.48s-6.827 13.653-13.653 13.653h-13.653c-6.827 0-13.653-13.653-13.653-20.48 0 0 0 0 0 0zM634.88 434.347h-13.653c-6.827 0-13.653-6.827-13.653-13.653s6.827-13.653 20.48-13.653v0h13.653c6.827 0 13.653 6.827 13.653 20.48 0 0-13.653 6.827-20.48 6.827v0zM689.493 441.173h-13.653c-6.827 0-13.653-6.827-13.653-20.48 0-6.827 6.827-13.653 20.48-13.653v0h13.653c6.827 0 13.653 6.827 13.653 20.48s-13.653 20.48-20.48 13.653v0zM484.693 741.547v0c6.827 0 6.827 0 13.653 0s13.653 6.827 13.653 13.653c0 0 0 0 0 0 0 6.827-6.827 13.653-20.48 13.653h-6.827c-13.653 6.827-20.48 0-20.48-13.653 0 0 0 0 0 0 0-6.827 6.827-13.653 20.48-13.653 0 0 0 0 0 0zM368.64 748.373h13.653c6.827 0 20.48 6.827 20.48 13.653s-6.827 20.48-13.653 20.48h-13.653c-6.827 0-20.48-6.827-20.48-13.653-6.827-13.653 0-20.48 13.653-20.48v0zM314.027 755.2h13.653c6.827-6.827 13.653 0 13.653 13.653 0 6.827-6.827 20.48-13.653 20.48h-13.653c-6.827 0-20.48-6.827-20.48-13.653 0-13.653 6.827-20.48 20.48-20.48v0zM252.587 762.027h13.653c6.827 0 20.48 6.827 20.48 13.653s-6.827 20.48-13.653 20.48h-13.653c-6.827 0-20.48-6.827-20.48-13.653s6.827-13.653 13.653-20.48v0zM423.253 741.547h13.653c6.827 0 20.48 6.827 20.48 13.653s-6.827 20.48-13.653 20.48h-20.48c-6.827 0-13.653-6.827-13.653-13.653 0-13.653 6.827-20.48 13.653-20.48v0zM703.147 768.853c6.827 0 6.827 0 0 0l13.653 6.827c6.827 0 13.653 13.653 13.653 20.48s-13.653 13.653-20.48 13.653h-13.653c-6.827 0-13.653-13.653-13.653-20.48 6.827-13.653 13.653-20.48 20.48-20.48v0zM539.307 741.547v0h13.653c6.827 0 13.653 6.827 13.653 20.48 0 6.827-6.827 13.653-20.48 13.653v0h-13.653c-6.827 0-13.653-6.827-13.653-20.48 0-6.827 13.653-13.653 20.48-13.653v0zM648.533 755.2c0 0 6.827 0 0 0h13.653c6.827 0 13.653 13.653 13.653 20.48s-13.653 13.653-20.48 13.653h-13.653c-6.827 0-13.653-6.827-13.653-20.48 6.827-6.827 13.653-13.653 20.48-13.653v0zM593.92 748.373v0h13.653c6.827 0 13.653 6.827 13.653 20.48 0 6.827-6.827 13.653-20.48 13.653h-13.653c-6.827 0-13.653-6.827-13.653-20.48 6.827-6.827 13.653-13.653 20.48-13.653v0 0zM395.947 229.547c0 6.827-6.827 20.48-13.653 20.48 0 0 0 0 0 0h-13.653c-6.827 0-20.48-6.827-20.48-13.653s6.827-20.48 13.653-20.48v0h13.653c13.653 0 20.48 6.827 20.48 13.653zM450.56 222.72c0 6.827-6.827 20.48-13.653 20.48h-13.653c-6.827 0-20.48-6.827-20.48-13.653 6.827-13.653 13.653-20.48 20.48-20.48h13.653c6.827 0 13.653 6.827 13.653 13.653zM512 222.72c0 6.827-6.827 20.48-13.653 20.48h-13.653c-6.827 0-20.48-6.827-20.48-13.653s6.827-20.48 13.653-20.48h13.653c6.827-6.827 13.653 0 20.48 13.653zM621.227 222.72c0 6.827-6.827 13.653-20.48 13.653 0 0 0 0 0 0h-13.653c-6.827 0-13.653-6.827-13.653-20.48s6.827-13.653 20.48-13.653v0 0h13.653c6.827 6.827 13.653 13.653 13.653 20.48 0 0 0 0 0 0zM566.613 215.893c0 6.827-6.827 13.653-13.653 13.653 0 0 0 0 0 0h-13.653c-6.827 0-13.653-6.827-13.653-13.653s6.827-13.653 13.653-13.653v0h6.827c13.653 0 20.48 6.827 20.48 13.653zM163.84 304.64h-6.827c-6.827 6.827-20.48 0-20.48-6.827s0-20.48 6.827-20.48l13.653-6.827c6.827-6.827 20.48 0 20.48 6.827 6.827 13.653 0 20.48-13.653 27.307 6.827 0 6.827 0 0 0v0zM286.72 250.027c0 6.827 0 20.48-13.653 20.48 0 0 0 0 0 0h-13.653c-6.827 0-20.48-6.827-20.48-13.653s0-13.653 13.653-20.48h13.653c6.827 0 13.653 6.827 20.48 13.653 0 0 0 0 0 0v0zM232.107 263.68c0 6.827 0 20.48-13.653 20.48h-13.653c-6.827 0-20.48 0-20.48-13.653 0-6.827 0-20.48 13.653-20.48h13.653c6.827 0 13.653 6.827 20.48 13.653v0zM341.333 236.373c0 6.827-6.827 20.48-13.653 20.48 0 0 0 0 0 0h-13.653c-6.827 0-20.48-6.827-20.48-13.653s6.827-20.48 13.653-20.48h13.653c13.653 0 20.48 6.827 20.48 13.653zM771.413 263.68h-13.653c-6.827 0-13.653-6.827-13.653-20.48 0-6.827 6.827-13.653 20.48-13.653 0 0 0 0 6.827 0h13.653c6.827 0 13.653 13.653 13.653 20.48-13.653 6.827-20.48 13.653-27.307 13.653 0 0 0 0 0 0v0zM819.2 277.333h-13.653c-6.827 0-13.653-13.653-13.653-20.48s13.653-13.653 20.48-13.653c0 0 0 0 0 0h13.653c6.827 0 13.653 13.653 13.653 20.48s-6.827 13.653-20.48 13.653c6.827 0 6.827 0 0 0v0zM873.813 290.987l-13.653-6.827c-6.827 0-13.653-13.653-13.653-20.48s13.653-13.653 20.48-13.653l13.653 6.827c6.827 0 13.653 13.653 13.653 20.48s-6.827 20.48-20.48 13.653v0zM730.453 236.373c0 6.827-13.653 13.653-20.48 13.653 0 0 0 0 0 0h-13.653c-6.827 0-13.653-6.827-13.653-20.48 0-6.827 6.827-13.653 20.48-13.653v0h13.653c13.653 6.827 20.48 13.653 13.653 20.48 0 0 0 0 0 0zM675.84 229.547c0 6.827-6.827 13.653-20.48 13.653 0 0 0 0 0 0h-13.653c-6.827 0-13.653-6.827-13.653-20.48 0-6.827 6.827-13.653 20.48-13.653v0h13.653c6.827 0 13.653 13.653 13.653 20.48 0 0 0 0 0 0zM512 960c-279.893 0-512-232.107-512-512s232.107-512 512-512 512 232.107 512 512-232.107 512-512 512zM928.427 311.467l-13.653-6.827c-6.827-6.827-13.653-13.653-6.827-20.48 0-6.827 6.827-6.827 13.653-6.827-20.48-40.96-40.96-81.92-68.267-116.053v0l-6.827-6.827c-6.827 0-6.827-6.827-6.827-13.653l-20.48-6.827c-6.827 6.827-13.653 6.827-20.48 6.827l-6.827-6.827c-6.827 0-13.653-13.653-6.827-20.48 0 0 0 0 0 0 0-6.827 6.827-6.827 6.827-6.827-170.667-136.533-423.253-129.707-580.267 27.307 0 0 6.827 6.827 6.827 6.827 6.827 6.827 0 20.48-6.827 20.48 0 0 0 0 0 0l-13.653 6.827c-6.827 0-13.653 0-13.653 0-34.133 40.96-61.44 81.92-75.093 129.707v0c6.827-6.827 20.48 0 20.48 6.827 6.827 6.827 0 20.48-6.827 20.48h-20.48c-6.827 0-13.653 0-13.653 0-13.653 40.96-20.48 81.92-20.48 122.88 0 6.827 0 6.827 0 13.653v0c6.827 0 20.48 0 20.48 13.653 0 6.827 0 20.48-13.653 20.48h-6.827c13.653 40.96 20.48 81.92 34.133 122.88 6.827 0 13.653 6.827 13.653 20.48 0 0 0 6.827 0 6.827 27.307 47.787 61.44 95.573 102.4 129.707 6.827 0 13.653 6.827 13.653 13.653 143.36 122.88 354.987 136.533 518.827 34.133-6.827-6.827-6.827-20.48 0-27.307s13.653-6.827 20.48-6.827l13.653 6.827c0 0 0 0 0 0 88.747-68.267 150.187-170.667 170.667-286.72-6.827-6.827-13.653-13.653-6.827-20.48-6.827-6.827 0-6.827 0-6.827 0-6.827 0-20.48 0-34.133 6.827-47.787-6.827-88.747-20.48-136.533 0 0 0 0 0 0zM634.88 99.84h-13.653c-6.827 0-13.653-6.827-13.653-20.48 0-6.827 6.827-13.653 20.48-13.653v0h13.653c6.827 0 13.653 6.827 13.653 20.48 0 6.827-6.827 13.653-20.48 13.653v0zM259.413 140.8l-13.653 6.827c-6.827 0-20.48 0-20.48-13.653 0-6.827 0-20.48 13.653-20.48l13.653-6.827c6.827 0 20.48 0 20.48 13.653-6.827 13.653-6.827 20.48-13.653 20.48zM580.267 93.013c-6.827 0-6.827 0-13.653 0s-13.653-6.827-13.653-13.653c0 0 0 0 0 0 0-6.827 6.827-13.653 13.653-13.653v0c6.827 0 6.827 0 13.653 0s13.653 6.827 13.653 13.653c6.827 6.827 0 13.653-13.653 13.653zM307.2 127.147h-13.653c-6.827 0-20.48 0-20.48-13.653 0-6.827 0-20.48 13.653-20.48 0 0 0 0 0 0h13.653c6.827 0 20.48 0 20.48 13.653 6.827 6.827 0 13.653-13.653 20.48 0 0 0 0 0 0v0zM471.040 93.013h-13.653c-6.827 0-20.48-6.827-20.48-13.653s6.827-20.48 13.653-20.48h13.653c6.827 0 20.48 6.827 20.48 13.653 6.827 13.653 0 20.48-13.653 20.48v0 0zM361.813 113.493h-13.653c-6.827 0-20.48 0-20.48-13.653 0-6.827 0-20.48 13.653-20.48 0 0 0 0 0 0h13.653c6.827 0 20.48 6.827 20.48 13.653s-6.827 20.48-13.653 20.48v0zM525.653 93.013c-6.827 0-6.827 0-13.653 0s-13.653-6.827-20.48-13.653c0 0 0 0 0 0 0-6.827 6.827-13.653 13.653-13.653 0 0 0 0 0 0 6.827 0 6.827 0 13.653 0v0c6.827 0 13.653 6.827 13.653 13.653 0 0 0 0 0 0 13.653 6.827 6.827 13.653-6.827 13.653zM416.427 99.84h-13.653c-6.827 0-20.48-6.827-20.48-13.653s6.827-20.48 13.653-20.48h13.653c6.827 0 20.48 6.827 20.48 13.653s0 20.48-13.653 20.48v0zM744.107 120.32h-13.653c-6.827 0-13.653-13.653-13.653-20.48s13.653-13.653 20.48-13.653c0 0 0 0 0 0h13.653c6.827 0 13.653 13.653 13.653 20.48 0 13.653-13.653 13.653-20.48 13.653v0zM689.493 106.667h-13.653c-6.827 0-13.653-6.827-13.653-20.48 0-6.827 6.827-13.653 20.48-13.653v0h13.653c6.827 0 13.653 13.653 13.653 20.48s-6.827 13.653-20.48 13.653z" />
<glyph unicode="&#xe944;" glyph-name="icon_69" d="M1024 475.307c0 0 0 0 0 0s0 0 0 0c-13.653 259.413-225.28 471.040-484.693 484.693 0 0 0 0 0 0v0c-6.827 0-20.48 0-27.307 0-279.893 0-512-232.107-512-512 0-6.827 0-20.48 0-27.307 0 0 0 0 0 0s0 0 0 0c13.653-259.413 218.453-464.213 477.867-477.867 0 0 0 0 0 0s0 0 0 0v0c6.827 0 20.48 0 27.307 0 279.893 0 512 232.107 512 512 6.827 0 6.827 13.653 6.827 20.48zM512 898.56c0-47.787-6.827-95.573-27.307-143.36l-20.48 6.827c-13.653 6.827-34.133 0-40.96-13.653-13.653-13.653-6.827-34.133 13.653-40.96l27.307-13.653c-20.48-34.133-40.96-61.44-61.44-88.747l-27.307 27.307c-13.653 13.653-34.133 13.653-47.787 0s-13.653-34.133 0-47.787l27.307-27.307c-27.307-20.48-54.613-40.96-88.747-61.44l-13.653 27.307c-6.827 20.48-27.307 27.307-40.96 20.48-20.48-13.653-27.307-27.307-13.653-47.787l6.827-20.48c-40.96-20.48-88.747-27.307-143.36-27.307 0 245.76 204.8 450.56 450.56 450.56zM491.52 209.067l-27.307 20.48c-13.653 6.827-34.133 6.827-40.96-13.653-6.827-13.653-6.827-34.133 13.653-40.96l40.96-20.48c-13.653-47.787-20.48-95.573-20.48-143.36-204.8 20.48-361.813 177.493-389.12 375.467 61.44 0 116.053 13.653 170.667 27.307l20.48-47.787c6.827-6.827 13.653-13.653 27.307-13.653 6.827 0 6.827 0 13.653 0 13.653 6.827 20.48 27.307 13.653 40.96l-20.48 47.787c40.96 20.48 75.093 40.96 109.227 68.267l20.48-20.48c6.827-6.827 13.653-6.827 27.307-6.827s13.653 0 20.48 6.827c13.653 13.653 13.653 34.133 0 47.787l-20.48 20.48c27.307 34.133 54.613 68.267 75.093 109.227l40.96-20.48c6.827 0 6.827 0 13.653 0 13.653 0 20.48 6.827 27.307 20.48s0 34.133-13.653 40.96l-47.787 13.653c20.48 54.613 27.307 109.227 27.307 170.667 197.973-27.307 348.16-184.32 382.293-382.293-47.787 0-95.573-6.827-143.36-20.48l-20.48 34.133c0 20.48-20.48 27.307-40.96 20.48-13.653-6.827-20.48-27.307-13.653-40.96l13.653-34.133c-47.787-20.48-95.573-47.787-129.707-81.92l-20.48 20.48c-13.653 13.653-34.133 13.653-47.787 0s-13.653-34.133 0-47.787l20.48-20.48c-27.307-40.96-54.613-81.92-81.92-129.707zM512-2.56c0 40.96 6.827 81.92 13.653 116.053l34.133-20.48c6.827 0 13.653-6.827 13.653-6.827 13.653 0 20.48 6.827 27.307 13.653 6.827 13.653 6.827 34.133-13.653 40.96l-40.96 27.307c20.48 40.96 40.96 81.92 75.093 116.053l27.307-27.307c6.827-6.827 13.653-6.827 20.48-6.827s13.653 0 20.48 6.827c13.653 13.653 13.653 34.133 0 47.787l-20.48 34.133c34.133 27.307 75.093 54.613 116.053 75.093l20.48-40.96c6.827-13.653 13.653-20.48 27.307-20.48 6.827 0 6.827 0 13.653 0 13.653 6.827 20.48 27.307 13.653 40.96l-13.653 34.133c34.133 6.827 75.093 13.653 116.053 13.653 0-238.933-204.8-443.733-450.56-443.733z" />
</font>
</defs>
</svg>
